<?xml version="1.0" encoding="UTF-8" standalone="no"?>
<!-- Created with Inkscape (http://www.inkscape.org/) -->

<svg
   xmlns:ns0="http://www.iki.fi/pav/software/textext/"
   xmlns:dc="http://purl.org/dc/elements/1.1/"
   xmlns:cc="http://creativecommons.org/ns#"
   xmlns:rdf="http://www.w3.org/1999/02/22-rdf-syntax-ns#"
   xmlns:svg="http://www.w3.org/2000/svg"
   xmlns="http://www.w3.org/2000/svg"
   xmlns:sodipodi="http://sodipodi.sourceforge.net/DTD/sodipodi-0.dtd"
   xmlns:inkscape="http://www.inkscape.org/namespaces/inkscape"
   width="210mm"
   height="297mm"
   viewBox="0 0 744.09448819 1052.3622047"
   id="svg4442"
   version="1.1"
   inkscape:version="0.91 r13725"
   sodipodi:docname="boat3DForces.svg">
  <defs
     id="defs4444">
    <marker
       inkscape:stockid="TriangleOutM"
       orient="auto"
       refY="0"
       refX="0"
       id="marker4544"
       style="overflow:visible"
       inkscape:isstock="true">
      <path
         id="path4546"
         d="m 5.77,0 -8.65,5 0,-10 8.65,5 z"
         style="fill:#000000;fill-opacity:1;fill-rule:evenodd;stroke:#000000;stroke-width:1pt;stroke-opacity:1"
         transform="scale(0.4,0.4)"
         inkscape:connector-curvature="0" />
    </marker>
    <marker
       inkscape:isstock="true"
       style="overflow:visible"
       id="marker4402"
       refX="0"
       refY="0"
       orient="auto"
       inkscape:stockid="TriangleOutM"
       inkscape:collect="always">
      <path
         inkscape:connector-curvature="0"
         transform="scale(0.4,0.4)"
         style="fill:#000000;fill-opacity:1;fill-rule:evenodd;stroke:#000000;stroke-width:1pt;stroke-opacity:1"
         d="m 5.77,0 -8.65,5 0,-10 8.65,5 z"
         id="path4404" />
    </marker>
    <marker
       inkscape:stockid="TriangleOutM"
       orient="auto"
       refY="0"
       refX="0"
       id="marker4238"
       style="overflow:visible"
       inkscape:isstock="true">
      <path
         id="path4240"
         d="m 5.77,0 -8.65,5 0,-10 8.65,5 z"
         style="fill:#000000;fill-opacity:1;fill-rule:evenodd;stroke:#000000;stroke-width:1pt;stroke-opacity:1"
         transform="scale(0.4,0.4)"
         inkscape:connector-curvature="0" />
    </marker>
    <marker
       inkscape:isstock="true"
       style="overflow:visible"
       id="marker14682"
       refX="0"
       refY="0"
       orient="auto"
       inkscape:stockid="TriangleOutM"
       inkscape:collect="always">
      <path
         inkscape:connector-curvature="0"
         transform="scale(0.4,0.4)"
         style="fill:#000000;fill-opacity:1;fill-rule:evenodd;stroke:#000000;stroke-width:1pt;stroke-opacity:1"
         d="m 5.77,0 -8.65,5 0,-10 8.65,5 z"
         id="path14684" />
    </marker>
    <marker
       inkscape:stockid="TriangleInM"
       orient="auto"
       refY="0"
       refX="0"
       id="marker4828"
       style="overflow:visible"
       inkscape:isstock="true">
      <path
         inkscape:connector-curvature="0"
         id="path4830"
         d="m 5.77,0 -8.65,5 0,-10 8.65,5 z"
         style="fill:#000000;fill-opacity:1;fill-rule:evenodd;stroke:#000000;stroke-width:1pt;stroke-opacity:1"
         transform="scale(-0.4,-0.4)" />
    </marker>
    <marker
       inkscape:isstock="true"
       style="overflow:visible"
       id="marker5557"
       refX="0"
       refY="0"
       orient="auto"
       inkscape:stockid="TriangleOutM">
      <path
         inkscape:connector-curvature="0"
         transform="scale(0.4,0.4)"
         style="fill:#646464;fill-opacity:1;fill-rule:evenodd;stroke:#646464;stroke-width:1pt;stroke-opacity:1"
         d="m 5.77,0 -8.65,5 0,-10 8.65,5 z"
         id="path5559" />
    </marker>
    <marker
       inkscape:stockid="TriangleOutM"
       orient="auto"
       refY="0"
       refX="0"
       id="marker6507"
       style="overflow:visible"
       inkscape:isstock="true">
      <path
         inkscape:connector-curvature="0"
         id="path6396"
         d="m 5.77,0 -8.65,5 0,-10 8.65,5 z"
         style="fill:#646464;fill-opacity:1;fill-rule:evenodd;stroke:#646464;stroke-width:1pt;stroke-opacity:1"
         transform="scale(0.4,0.4)" />
    </marker>
    <marker
       inkscape:isstock="true"
       style="overflow:visible"
       id="marker18939"
       refX="0"
       refY="0"
       orient="auto"
       inkscape:stockid="TriangleOutM">
      <path
         inkscape:connector-curvature="0"
         transform="scale(0.4,0.4)"
         style="fill:#000000;fill-opacity:1;fill-rule:evenodd;stroke:#000000;stroke-width:1pt;stroke-opacity:1"
         d="m 5.77,0 -8.65,5 0,-10 8.65,5 z"
         id="path18941" />
    </marker>
    <marker
       inkscape:stockid="TriangleOutM"
       orient="auto"
       refY="0"
       refX="0"
       id="marker6564"
       style="overflow:visible"
       inkscape:isstock="true">
      <path
         inkscape:connector-curvature="0"
         id="path6566"
         d="m 5.77,0 -8.65,5 0,-10 8.65,5 z"
         style="fill:#000000;fill-opacity:1;fill-rule:evenodd;stroke:#000000;stroke-width:1pt;stroke-opacity:1"
         transform="scale(0.4,0.4)" />
    </marker>
    <marker
       inkscape:stockid="TriangleOutM"
       orient="auto"
       refY="0"
       refX="0"
       id="TriangleOutM"
       style="overflow:visible"
       inkscape:isstock="true"
       inkscape:collect="always">
      <path
         inkscape:connector-curvature="0"
         id="path4296"
         d="m 5.77,0 -8.65,5 0,-10 8.65,5 z"
         style="fill:#646464;fill-opacity:1;fill-rule:evenodd;stroke:#646464;stroke-width:1pt;stroke-opacity:1"
         transform="scale(0.4,0.4)" />
    </marker>
  </defs>
  <sodipodi:namedview
     id="base"
     pagecolor="#ffffff"
     bordercolor="#666666"
     borderopacity="1.0"
     inkscape:pageopacity="0.0"
     inkscape:pageshadow="2"
     inkscape:zoom="1.979899"
     inkscape:cx="277.54972"
     inkscape:cy="577.42585"
     inkscape:document-units="px"
     inkscape:current-layer="layer1"
     showgrid="false"
     inkscape:window-width="1366"
     inkscape:window-height="705"
     inkscape:window-x="-8"
     inkscape:window-y="241"
     inkscape:window-maximized="1" />
  <metadata
     id="metadata4447">
    <rdf:RDF>
      <cc:Work
         rdf:about="">
        <dc:format>image/svg+xml</dc:format>
        <dc:type
           rdf:resource="http://purl.org/dc/dcmitype/StillImage" />
        <dc:title />
      </cc:Work>
    </rdf:RDF>
  </metadata>
  <g
     inkscape:label="Layer 1"
     inkscape:groupmode="layer"
     id="layer1">
    <path
       style="display:inline;opacity:1;fill:none;fill-rule:evenodd;stroke:#646464;stroke-width:0.92356545;stroke-linecap:round;stroke-linejoin:miter;stroke-miterlimit:4;stroke-dasharray:none;stroke-opacity:1"
       d="m 336.97815,402.90977 -32.54359,-8.72003"
       id="path5061"
       inkscape:connector-curvature="0" />
    <path
       style="display:inline;opacity:1;fill:none;fill-rule:evenodd;stroke:#646464;stroke-width:0.92356545;stroke-linecap:butt;stroke-linejoin:miter;stroke-miterlimit:4;stroke-dasharray:none;stroke-opacity:1;marker-end:url(#TriangleOutM)"
       d="m 341.04092,414.06964 116.37337,0"
       id="path3338"
       inkscape:connector-curvature="0" />
    <g
       style="display:inline"
       id="g6173"
       transform="matrix(0.36942617,0,0,0.36942617,225.83803,295.78133)">
      <path
         style="fill:none;fill-rule:evenodd;stroke:#000000;stroke-width:1px;stroke-linecap:butt;stroke-linejoin:miter;stroke-opacity:1"
         d="m 297.23391,296.84245 c 50.27742,0 166.4174,-0.67361 220.2621,-0.67361 34.42895,0 37.5504,-5.18577 37.5504,-5.18577 -4.82176,22.38232 -15.6705,56.25001 -35.54687,56.25001 l -247.26563,0 c 11.15065,0 25,-29.54975 25,-50.39063 z"
         id="path4953"
         inkscape:connector-curvature="0"
         sodipodi:nodetypes="cscccc" />
      <path
         style="fill:none;fill-rule:evenodd;stroke:#000000;stroke-width:1px;stroke-linecap:butt;stroke-linejoin:miter;stroke-opacity:1"
         d="M 297.81985,297.08464 256.25761,285.94807"
         id="path4955"
         inkscape:connector-curvature="0" />
      <path
         style="fill:none;fill-opacity:1;fill-rule:evenodd;stroke:#000000;stroke-width:1px;stroke-linecap:butt;stroke-linejoin:miter;stroke-opacity:1"
         d="m 272.23391,347.23308 c -15.47328,0.40168 -15.625,-38.1731 -15.625,-60.9375"
         id="path4957"
         inkscape:connector-curvature="0"
         sodipodi:nodetypes="cc" />
      <path
         style="fill:none;fill-rule:evenodd;stroke:#000000;stroke-width:1px;stroke-linecap:butt;stroke-linejoin:miter;stroke-opacity:1"
         d="m 256.60891,285.51433 220.6814,0 c 14.00901,0 77.7798,0.5369 77.7798,4.73285"
         id="path4959"
         inkscape:connector-curvature="0"
         sodipodi:nodetypes="ccc" />
      <path
         inkscape:connector-curvature="0"
         id="path5668"
         d="m 279.72283,344.38373 c 8.36198,-7.55455 16.51171,-26.84814 17.97039,-42.54294 l 0.35824,-3.85454 22.71654,-0.36423 c 12.4941,-0.20032 54.28775,-0.3844 92.87479,-0.40907 109.29261,-0.0699 129.49372,-0.5824 137.69247,-3.49341 1.88896,-0.67069 2.34782,-0.69135 2.34782,-0.10574 0,1.37874 -4.45911,16.50268 -6.42943,21.80664 -2.31903,6.24267 -6.59806,15.01813 -9.12734,18.71844 -2.73986,4.00836 -7.65129,8.66703 -10.98938,10.42382 l -3.0087,1.58345 -123.33629,0.14291 -123.33628,0.14292 2.26717,-2.04825 z"
         style="opacity:1;fill:#f9f9f9;stroke:#f9f9f9;stroke-width:0.55739897;stroke-miterlimit:4;stroke-dasharray:none;stroke-opacity:1" />
      <path
         inkscape:connector-curvature="0"
         id="path5670"
         d="m 268.23305,345.33372 c -5.28362,-3.22156 -8.5805,-13.26295 -10.0718,-30.67592 -0.65625,-7.66266 -0.77657,-27.34515 -0.16715,-27.34515 0.22658,0 8.92731,2.27875 19.33495,5.06388 l 18.92297,5.06388 0,2.64206 c 0,6.79619 -3.97151,21.18956 -8.12569,29.44877 -6.93568,13.78934 -13.99631,19.39802 -19.89328,15.80248 z"
         style="opacity:1;fill:#f9f9f9;stroke:#f9f9f9;stroke-width:0.55739897;stroke-miterlimit:4;stroke-dasharray:none;stroke-opacity:1" />
      <path
         inkscape:connector-curvature="0"
         id="path5700"
         d="m 278.85309,291.27302 -17.67514,-4.78901 112.4164,-0.1661 c 127.18609,-0.18793 158.66649,0.29879 175.11689,2.70748 7.04188,1.03109 7.00687,1.94884 -0.14413,3.77775 -10.44264,2.67078 -13.12939,2.72622 -146.52529,3.02364 l -105.51359,0.23525 -17.67514,-4.78901 z"
         style="opacity:1;fill:#f9f9f9;stroke:#f9f9f9;stroke-width:0.55739897;stroke-miterlimit:4;stroke-dasharray:none;stroke-opacity:1" />
    </g>
    <path
       transform="matrix(0.98948135,0.14466046,-0.73909852,0.67359734,0,0)"
       d="m 706.14801,436.12942 a 4.5518837,2.4741869 0 0 1 -4.21423,-2.18849 4.5518837,2.4741869 0 0 1 3.20079,-2.64758 4.5518837,2.4741869 0 0 1 5.36801,1.23413"
       sodipodi:open="true"
       sodipodi:end="5.8073213"
       sodipodi:start="1.6386023"
       sodipodi:ry="2.4741869"
       sodipodi:rx="4.5518837"
       sodipodi:cy="433.66092"
       sodipodi:cx="706.45642"
       sodipodi:type="arc"
       id="path16761"
       style="display:inline;opacity:1;fill:none;fill-opacity:0;stroke:#000000;stroke-width:0.42384613;stroke-linecap:round;stroke-linejoin:miter;stroke-miterlimit:4;stroke-dasharray:none;stroke-opacity:1;marker-end:url(#marker6564)" />
    <path
       style="display:inline;opacity:1;fill:none;fill-opacity:0;stroke:#000000;stroke-width:0.41473147;stroke-linecap:round;stroke-linejoin:miter;stroke-miterlimit:4;stroke-dasharray:none;stroke-opacity:1;marker-end:url(#marker18939)"
       id="path18937"
       sodipodi:type="arc"
       sodipodi:cx="-37.944435"
       sodipodi:cy="581.36603"
       sodipodi:rx="4.142014"
       sodipodi:ry="2.0694191"
       sodipodi:start="4.9741884"
       sodipodi:end="2.2619154"
       d="m -36.872403,579.36712 a 4.142014,2.0694191 0 0 1 3.04084,1.75386 4.142014,2.0694191 0 0 1 -2.130048,2.06194 4.142014,2.0694191 0 0 1 -4.622943,-0.22234"
       transform="matrix(0.07244686,-0.99737227,0.76297277,0.64643062,0,0)"
       sodipodi:open="true" />
    <path
       style="display:inline;opacity:1;fill:#000000;fill-opacity:0;fill-rule:evenodd;stroke:#646464;stroke-width:0.92356545;stroke-linecap:round;stroke-linejoin:miter;stroke-miterlimit:4;stroke-dasharray:none;stroke-opacity:1"
       d="m 292.74965,413.98215 32.12781,0.0358"
       id="path5045"
       inkscape:connector-curvature="0"
       sodipodi:nodetypes="cc" />
    <path
       style="display:inline;opacity:1;fill:none;fill-rule:evenodd;stroke:#646464;stroke-width:0.92400002;stroke-linecap:round;stroke-linejoin:miter;stroke-miterlimit:4;stroke-dasharray:none;stroke-opacity:1;marker-end:url(#marker6507)"
       d="m 379.14762,414.02647 73.40493,19.66879"
       id="path5047"
       inkscape:connector-curvature="0" />
    <path
       inkscape:connector-curvature="0"
       id="path5555"
       d="m 378.64753,424.02609 0,41.46591"
       style="display:inline;opacity:1;fill:none;fill-rule:evenodd;stroke:#646464;stroke-width:0.92356545;stroke-linecap:butt;stroke-linejoin:miter;stroke-miterlimit:4;stroke-dasharray:none;stroke-opacity:1;marker-end:url(#marker5557)" />
    <path
       style="display:inline;opacity:1;fill:none;fill-rule:evenodd;stroke:#000000;stroke-width:0.65499997;stroke-linecap:butt;stroke-linejoin:miter;stroke-miterlimit:4;stroke-dasharray:none;stroke-opacity:1;marker-end:url(#marker4402)"
       d="m 314.40702,410.21701 16.73465,0"
       id="path3420"
       inkscape:connector-curvature="0" />
    <path
       inkscape:connector-curvature="0"
       id="path5743"
       d="m 306.1331,407.00124 16.73464,0"
       style="display:inline;opacity:1;fill:none;fill-rule:evenodd;stroke:#000000;stroke-width:0.65499997;stroke-linecap:butt;stroke-linejoin:miter;stroke-miterlimit:4;stroke-dasharray:none;stroke-opacity:1;marker-end:url(#marker4544)" />
    <path
       sodipodi:nodetypes="cc"
       inkscape:connector-curvature="0"
       id="path6551"
       d="m 378.92003,374.25066 -0.10079,29.41608"
       style="display:inline;opacity:1;fill:#000000;fill-opacity:0;fill-rule:evenodd;stroke:#646464;stroke-width:0.92356545;stroke-linecap:round;stroke-linejoin:miter;stroke-miterlimit:4;stroke-dasharray:none;stroke-opacity:1" />
    <g
       style="font-style:normal;font-variant:normal;font-weight:normal;font-stretch:normal;letter-spacing:normal;word-spacing:normal;text-anchor:start;display:inline;fill:none;fill-opacity:1;fill-rule:evenodd;stroke:#000000;stroke-linecap:butt;stroke-linejoin:miter;stroke-miterlimit:10.43299961;stroke-dasharray:none;stroke-dashoffset:0;stroke-opacity:1"
       ns0:preamble=""
       ns0:text="$F_1$\n"
       word-spacing="normal"
       letter-spacing="normal"
       font-size-adjust="none"
       font-stretch="normal"
       font-weight="normal"
       font-variant="normal"
       font-style="normal"
       stroke-miterlimit="10.433"
       xml:space="preserve"
       transform="matrix(0.46487648,0,0,-0.46487648,197.30643,737.02739)"
       id="g5022"><path
         style="fill:#000000;stroke-width:0"
         inkscape:connector-curvature="0"
         id="path5024"
         d="m 226.45,710.35 0.97,0 c 0.75,0 0.83,-0.15 0.83,-0.44 0,-0.07 0,-0.19 -0.07,-0.49 -0.02,-0.05 -0.03,-0.09 -0.03,-0.11 0,-0.08 0.06,-0.12 0.12,-0.12 0.1,0 0.1,0.03 0.15,0.21 l 0.55,2.15 c 0.03,0.11 0.03,0.13 0.03,0.16 0,0.02 -0.02,0.11 -0.12,0.11 -0.1,0 -0.11,-0.05 -0.15,-0.21 -0.21,-0.77 -0.44,-0.95 -1.29,-0.95 l -0.91,0 0.64,2.52 c 0.09,0.35 0.1,0.39 0.54,0.39 l 1.32,0 c 1.22,0 1.45,-0.33 1.45,-1.09 0,-0.23 0,-0.27 -0.03,-0.54 -0.02,-0.13 -0.02,-0.15 -0.02,-0.18 0,-0.05 0.03,-0.11 0.12,-0.11 0.11,0 0.12,0.06 0.14,0.24 l 0.2,1.72 c 0.03,0.27 -0.02,0.27 -0.27,0.27 l -4.88,0 c -0.2,0 -0.3,0 -0.3,-0.2 0,-0.11 0.09,-0.11 0.28,-0.11 0.37,0 0.64,0 0.64,-0.18 0,-0.04 0,-0.06 -0.05,-0.23 L 225,707.9 c -0.1,-0.39 -0.12,-0.47 -0.91,-0.47 -0.17,0 -0.28,0 -0.28,-0.19 0,-0.12 0.12,-0.12 0.15,-0.12 0.29,0 1.03,0.04 1.32,0.04 0.33,0 1.15,-0.04 1.48,-0.04 0.09,0 0.21,0 0.21,0.19 0,0.08 -0.06,0.1 -0.06,0.11 -0.03,0.01 -0.05,0.01 -0.28,0.01 -0.22,0 -0.27,0 -0.51,0.02 -0.3,0.03 -0.33,0.07 -0.33,0.2 0,0.02 0,0.08 0.05,0.23 z" /><path
         style="fill:#000000;stroke-width:0"
         inkscape:connector-curvature="0"
         id="path5026"
         d="m 232.18,710.05 0,0.01 0,0.01 0,0.01 0,0.01 0,0 0,0.01 0,0.01 0,0.01 0,0 0,0.01 0,0.01 0,0 0,0.01 0,0 0,0.01 0,0 -0.01,0.01 0,0 0,0.01 0,0.01 0,0.01 -0.01,0 0,0.01 -0.01,0.01 0,0 -0.01,0.01 0,0 -0.01,0 -0.01,0.01 0,0 -0.01,0 -0.01,0 -0.01,0 0,0 -0.01,0 0,0.01 -0.01,0 -0.01,0 0,0 -0.01,0 -0.01,0 0,0 -0.01,0 -0.01,0 -0.01,0 0,0 -0.01,0 -0.01,0 -0.01,0 -0.01,0 c -0.45,-0.44 -1.08,-0.45 -1.37,-0.45 l 0,-0.25 c 0.17,0 0.63,0 1.02,0.2 l 0,-3.55 c 0,-0.23 0,-0.32 -0.7,-0.32 l -0.27,0 0,-0.25 c 0.13,0.01 0.99,0.03 1.25,0.03 0.21,0 1.09,-0.02 1.25,-0.03 l 0,0.25 -0.27,0 c -0.7,0 -0.7,0.09 -0.7,0.32 z" /></g>    <g
       style="font-style:normal;font-variant:normal;font-weight:normal;font-stretch:normal;letter-spacing:normal;word-spacing:normal;text-anchor:start;display:inline;fill:none;fill-opacity:1;fill-rule:evenodd;stroke:#000000;stroke-linecap:butt;stroke-linejoin:miter;stroke-miterlimit:10.43299961;stroke-dasharray:none;stroke-dashoffset:0;stroke-opacity:1"
       id="g5228"
       transform="matrix(0.46487648,0,0,-0.46487648,205.23607,740.85778)"
       xml:space="preserve"
       stroke-miterlimit="10.433"
       font-style="normal"
       font-variant="normal"
       font-weight="normal"
       font-stretch="normal"
       font-size-adjust="none"
       letter-spacing="normal"
       word-spacing="normal"
       ns0:text="$F_2$"
       ns0:preamble=""><path
         style="fill:#000000;stroke-width:0"
         inkscape:connector-curvature="0"
         d="m 226.45,710.35 0.97,0 c 0.75,0 0.83,-0.15 0.83,-0.44 0,-0.07 0,-0.19 -0.07,-0.49 -0.02,-0.05 -0.03,-0.09 -0.03,-0.11 0,-0.08 0.06,-0.12 0.12,-0.12 0.1,0 0.1,0.03 0.15,0.21 l 0.55,2.15 c 0.03,0.11 0.03,0.13 0.03,0.16 0,0.02 -0.02,0.11 -0.12,0.11 -0.1,0 -0.11,-0.05 -0.15,-0.21 -0.21,-0.77 -0.44,-0.95 -1.29,-0.95 l -0.91,0 0.64,2.52 c 0.09,0.35 0.1,0.39 0.54,0.39 l 1.32,0 c 1.22,0 1.45,-0.33 1.45,-1.09 0,-0.23 0,-0.27 -0.03,-0.54 -0.02,-0.13 -0.02,-0.15 -0.02,-0.18 0,-0.05 0.03,-0.11 0.12,-0.11 0.11,0 0.12,0.06 0.14,0.24 l 0.2,1.72 c 0.03,0.27 -0.02,0.27 -0.27,0.27 l -4.88,0 c -0.2,0 -0.3,0 -0.3,-0.2 0,-0.11 0.09,-0.11 0.28,-0.11 0.37,0 0.64,0 0.64,-0.18 0,-0.04 0,-0.06 -0.05,-0.23 L 225,707.9 c -0.1,-0.39 -0.12,-0.47 -0.91,-0.47 -0.17,0 -0.28,0 -0.28,-0.19 0,-0.12 0.12,-0.12 0.15,-0.12 0.29,0 1.03,0.04 1.32,0.04 0.33,0 1.15,-0.04 1.48,-0.04 0.09,0 0.21,0 0.21,0.19 0,0.08 -0.06,0.1 -0.06,0.11 -0.03,0.01 -0.05,0.01 -0.28,0.01 -0.22,0 -0.27,0 -0.51,0.02 -0.3,0.03 -0.33,0.07 -0.33,0.2 0,0.02 0,0.08 0.05,0.23 z"
         id="path5230" /><path
         style="fill:#000000;stroke-width:0"
         inkscape:connector-curvature="0"
         d="m 233.37,706.9 -0.24,0 c -0.02,-0.16 -0.09,-0.57 -0.18,-0.64 -0.06,-0.04 -0.59,-0.04 -0.69,-0.04 l -1.29,0 c 0.74,0.65 0.98,0.84 1.4,1.17 0.52,0.41 1,0.84 1,1.5 0,0.84 -0.74,1.36 -1.64,1.36 -0.86,0 -1.45,-0.61 -1.45,-1.25 0,-0.35 0.3,-0.39 0.37,-0.39 0.17,0 0.37,0.12 0.37,0.37 0,0.13 -0.05,0.37 -0.41,0.37 0.21,0.49 0.69,0.65 1.02,0.65 0.7,0 1.06,-0.54 1.06,-1.11 0,-0.6 -0.43,-1.08 -0.65,-1.33 l -1.69,-1.66 c -0.07,-0.06 -0.07,-0.07 -0.07,-0.27 l 2.88,0 z"
         id="path5232" /></g>    <path
       sodipodi:open="true"
       style="display:inline;opacity:1;fill:none;fill-opacity:0;stroke:#000000;stroke-width:0.395926;stroke-linecap:round;stroke-linejoin:miter;stroke-miterlimit:4;stroke-dasharray:none;stroke-opacity:1;marker-end:url(#marker14682)"
       id="path13030"
       sodipodi:type="arc"
       sodipodi:cx="-470.21268"
       sodipodi:cy="-658.1452"
       sodipodi:rx="3.5276666"
       sodipodi:ry="4.1730046"
       sodipodi:start="1.386864"
       sodipodi:end="5.8073213"
       d="m -469.56748,-654.04259 a 3.5276666,4.1730046 0 0 1 -4.03427,-2.9444 3.5276666,4.1730046 0 0 1 2.08533,-5.03577 3.5276666,4.1730046 0 0 1 4.43948,1.96588"
       transform="matrix(-0.87219485,0.4891586,-0.02974497,-0.99955752,0,0)" />
    <g
       id="g4423"
       transform="matrix(0.63819753,0,0,-0.63819753,292.19528,879.54591)"
       xml:space="preserve"
       stroke-miterlimit="10.433"
       font-style="normal"
       font-variant="normal"
       font-weight="normal"
       font-stretch="normal"
       font-size-adjust="none"
       letter-spacing="normal"
       word-spacing="normal"
       ns0:text="$\\theta$"
       ns0:preamble=""
       style="font-style:normal;font-variant:normal;font-weight:normal;font-stretch:normal;letter-spacing:normal;word-spacing:normal;text-anchor:start;display:inline;fill:none;fill-opacity:1;fill-rule:evenodd;stroke:#000000;stroke-linecap:butt;stroke-linejoin:miter;stroke-miterlimit:10.43299961;stroke-dasharray:none;stroke-dashoffset:0;stroke-opacity:1"><path
         d="m 227.97,712.09 0,0.07 0,0.06 -0.01,0.07 0,0.08 -0.01,0.07 0,0.08 -0.01,0.08 -0.01,0.09 -0.02,0.08 -0.01,0.08 -0.02,0.09 -0.02,0.08 -0.02,0.09 -0.03,0.08 -0.03,0.08 -0.03,0.09 -0.03,0.07 -0.04,0.08 -0.04,0.08 -0.04,0.07 -0.05,0.06 -0.05,0.07 -0.05,0.06 -0.06,0.05 -0.06,0.05 -0.04,0.02 -0.03,0.03 -0.03,0.02 -0.04,0.01 -0.04,0.02 -0.03,0.02 -0.04,0.01 -0.04,0.01 -0.04,0.01 -0.05,0.01 -0.04,0.01 -0.04,0 -0.05,0.01 -0.05,0 -0.01,-0.22 c 0.49,0 0.55,-0.64 0.55,-1.2 0,-0.49 -0.08,-1 -0.32,-1.98 l -2.08,0 c 0.17,0.64 0.37,1.43 0.77,2.14 0.27,0.48 0.63,1.04 1.08,1.04 l 0.01,0.22 c -1.38,0 -2.92,-2.8 -2.92,-5.08 0,-0.93 0.29,-2.03 1.2,-2.03 l 0,0.21 c -0.33,0 -0.54,0.29 -0.54,1.22 0,0.41 0.06,0.99 0.32,1.96 l 2.07,0 c -0.11,-0.45 -0.32,-1.3 -0.7,-2.01 -0.35,-0.68 -0.72,-1.17 -1.15,-1.17 l 0,-0.21 c 1.4,0 2.92,2.85 2.92,5.07 z"
         id="path4425"
         inkscape:connector-curvature="0"
         style="fill:#000000;stroke-width:0" /></g>    <g
       ns0:preamble=""
       ns0:text="$\\psi$"
       word-spacing="normal"
       letter-spacing="normal"
       font-size-adjust="none"
       font-stretch="normal"
       font-weight="normal"
       font-variant="normal"
       font-style="normal"
       stroke-miterlimit="10.433"
       xml:space="preserve"
       transform="matrix(0.63819753,0,0,-0.63819753,238.00636,842.10767)"
       id="g4595"
       style="font-style:normal;font-variant:normal;font-weight:normal;font-stretch:normal;letter-spacing:normal;word-spacing:normal;text-anchor:start;display:inline;fill:none;fill-opacity:1;fill-rule:evenodd;stroke:#000000;stroke-linecap:butt;stroke-linejoin:miter;stroke-miterlimit:10.43299961;stroke-dasharray:none;stroke-dashoffset:0;stroke-opacity:1"><path
         id="path4597"
         d="m 228.24,713.76 0,0 0,0.01 0,0.01 0.01,0.01 0,0 0,0.01 0,0.01 0,0.01 0.01,0.01 0,0.01 0,0.01 0,0.01 0,0.01 0.01,0.01 0,0.01 0,0.01 0,0.01 0,0 c 0,0.1 -0.07,0.11 -0.12,0.11 -0.1,0 -0.11,-0.02 -0.15,-0.2 l -1.66,-6.57 c -0.75,0.09 -1.13,0.46 -1.13,1.12 0,0.2 0,0.45 0.54,1.84 0.04,0.12 0.1,0.29 0.1,0.49 0,0.45 -0.31,0.82 -0.81,0.82 -0.95,0 -1.32,-1.44 -1.32,-1.53 0,-0.1 0.1,-0.1 0.12,-0.1 0.1,0 0.11,0.02 0.16,0.18 0.27,0.94 0.67,1.23 1.01,1.23 0.08,0 0.25,0 0.25,-0.32 0,-0.26 -0.1,-0.51 -0.23,-0.86 -0.48,-1.25 -0.48,-1.51 -0.48,-1.67 0,-0.95 0.78,-1.36 1.73,-1.41 -0.08,-0.36 -0.08,-0.38 -0.21,-0.91 -0.03,-0.11 -0.23,-0.91 -0.23,-0.94 0,-0.01 0,-0.1 0.12,-0.1 0.02,0 0.06,0 0.08,0.04 0.03,0.02 0.09,0.27 0.12,0.41 l 0.38,1.48 c 0.37,0 1.25,0 2.19,1.06 0.41,0.46 0.62,0.89 0.73,1.19 0.08,0.25 0.3,1.11 0.3,1.55 0,0.56 -0.27,0.7 -0.44,0.7 -0.24,0 -0.49,-0.26 -0.49,-0.48 0,-0.13 0.06,-0.19 0.15,-0.27 0.11,-0.11 0.36,-0.37 0.36,-0.84 0,-0.64 -0.52,-1.45 -0.87,-1.81 -0.88,-0.89 -1.52,-0.89 -1.88,-0.89 z"
         inkscape:connector-curvature="0"
         style="fill:#000000;stroke-width:0" /></g>    <g
       id="g4771"
       transform="matrix(0.63819753,0,0,-0.63819753,300.83253,861.29083)"
       xml:space="preserve"
       stroke-miterlimit="10.433"
       font-style="normal"
       font-variant="normal"
       font-weight="normal"
       font-stretch="normal"
       font-size-adjust="none"
       letter-spacing="normal"
       word-spacing="normal"
       ns0:text="$\\phi$"
       ns0:preamble=""
       style="font-style:normal;font-variant:normal;font-weight:normal;font-stretch:normal;letter-spacing:normal;word-spacing:normal;text-anchor:start;display:inline;fill:none;fill-opacity:1;fill-rule:evenodd;stroke:#000000;stroke-linecap:butt;stroke-linejoin:miter;stroke-miterlimit:10.43299961;stroke-dasharray:none;stroke-dashoffset:0;stroke-opacity:1"><path
         d="m 227.79,713.78 0,0 0,0 0,0 0,0.01 0,0 0,0 0,0 0,0 0,0.01 0,0 0,0 0,0.01 0.01,0 0,0.01 0,0.01 0,0 0,0.01 0,0 0.01,0.01 0,0.02 0,0 0,0.01 0,0 0,0.01 0,0 0.01,0.01 0,0 0,0.01 0,0 0,0 0,0 0,0 0,0 0,0.01 0,0 0,0 0,0 0,0 0,0 c 0,0.01 0,0.1 -0.12,0.1 -0.1,0 -0.11,-0.03 -0.15,-0.2 l -0.58,-2.29 c -1.58,-0.05 -3.05,-1.37 -3.05,-2.73 0,-0.94 0.7,-1.72 1.92,-1.79 l 0.04,0.21 c -0.59,0.03 -1.31,0.38 -1.31,1.37 0,1.2 0.86,2.59 2.34,2.72 l -1.03,-4.09 -0.04,-0.21 c -0.08,-0.31 -0.15,-0.63 -0.23,-0.94 -0.12,-0.47 -0.22,-0.84 -0.22,-0.87 0,-0.1 0.07,-0.11 0.12,-0.11 0.05,0 0.07,0.01 0.1,0.04 0.02,0.02 0.08,0.26 0.11,0.4 l 0.38,1.48 0.04,0.21 1.03,4.09 c 0.76,-0.04 1.33,-0.5 1.33,-1.37 0,-1.18 -0.86,-2.6 -2.36,-2.72 l -0.04,-0.21 c 1.6,0.04 3.05,1.39 3.05,2.72 0,0.78 -0.53,1.7 -1.92,1.8 z"
         id="path4773"
         inkscape:connector-curvature="0"
         style="fill:#000000;stroke-width:0" /></g>    <g
       style="display:inline"
       id="g6008"
       transform="matrix(0.141572,0,0,0.141572,411.01952,358.05114)">
      <g
         word-spacing="normal"
         letter-spacing="normal"
         font-size-adjust="none"
         font-stretch="normal"
         font-weight="normal"
         font-variant="normal"
         font-style="normal"
         stroke-miterlimit="10.433"
         xml:space="preserve"
         transform="matrix(1.0629921,0,0,-1.0629921,-186.02362,789.27165)"
         id="g6010"
         style="font-style:normal;font-variant:normal;font-weight:normal;font-stretch:normal;letter-spacing:normal;word-spacing:normal;text-anchor:start;fill:none;fill-opacity:1;fill-rule:evenodd;stroke:#000000;stroke-linecap:butt;stroke-linejoin:miter;stroke-miterlimit:10.43299961;stroke-dasharray:none;stroke-dashoffset:0;stroke-opacity:1"><path
           id="path6012"
           d="m 472.16,421.25 0.03,0.13 0.04,0.15 0.04,0.16 0.04,0.18 0.06,0.19 0.06,0.21 0.06,0.22 0.07,0.22 0.08,0.23 0.09,0.24 0.1,0.25 0.1,0.24 0.11,0.25 0.12,0.25 0.13,0.25 0.14,0.25 0.15,0.24 0.15,0.24 0.17,0.23 0.18,0.22 0.18,0.22 0.2,0.2 0.21,0.19 0.22,0.18 0.23,0.16 0.25,0.14 0.12,0.07 0.13,0.06 0.14,0.05 0.13,0.05 0.14,0.05 0.14,0.04 0.15,0.03 0.15,0.03 0.15,0.02 0.16,0.02 0.16,0.01 0.16,0 c 0.25,0 1.44,0 2.48,-0.64 -1.39,-0.25 -2.39,-1.5 -2.39,-2.69 0,-0.79 0.55,-1.75 1.89,-1.75 1.1,0 2.69,0.89 2.69,2.89 0,2.6 -2.94,3.28 -4.63,3.28 -2.89,0 -4.64,-2.64 -5.23,-3.78 -1.25,3.28 -3.94,3.78 -5.37,3.78 -5.19,0 -8.04,-6.42 -8.04,-7.67 0,-0.5 0.5,-0.5 0.61,-0.5 0.39,0 0.55,0.11 0.64,0.55 1.69,5.28 4.99,6.53 6.68,6.53 0.95,0 2.68,-0.44 2.68,-3.33 0,-1.54 -0.84,-4.89 -2.68,-11.86 -0.8,-3.09 -2.54,-5.18 -4.74,-5.18 -0.3,0 -1.44,0 -2.48,0.65 1.25,0.24 2.34,1.28 2.34,2.69 0,1.34 -1.09,1.73 -1.84,1.73 -1.5,0 -2.75,-1.29 -2.75,-2.89 0,-2.28 2.5,-3.28 4.68,-3.28 3.3,0 5.08,3.49 5.24,3.78 0.59,-1.84 2.39,-3.78 5.37,-3.78 5.14,0 7.99,6.42 7.99,7.67 0,0.5 -0.45,0.5 -0.61,0.5 -0.44,0 -0.55,-0.2 -0.64,-0.54 -1.64,-5.33 -5.03,-6.53 -6.63,-6.53 -1.95,0 -2.75,1.59 -2.75,3.29 0,1.1 0.3,2.19 0.86,4.38 z"
           inkscape:connector-curvature="0"
           style="fill:#000000;stroke-width:0" /><path
           id="path6014"
           d="m 490.9,422.95 -5.24,-0.39 0,-1.25 c 2.38,0 2.63,-0.28 2.63,-2.03 l 0,-20.52 1.17,0 1.22,2.13 c 1.33,-1.74 3.25,-2.47 5.09,-2.47 l -0.17,0.97 c -2.8,0 -4.19,2.2 -4.56,2.92 l 0,8.12 c 0.97,1.61 2.86,2.72 4.94,2.72 1.95,0 3.34,-1.11 4.04,-2.15 0.71,-1.02 1.11,-2.38 1.11,-4.68 0,-0.79 0,-3.42 -1.42,-5.04 -1.39,-1.58 -3.09,-1.89 -4.11,-1.89 l 0.17,-0.97 c 4.6,0 8.53,3.44 8.53,7.87 0,4.25 -3.57,7.83 -8.14,7.83 -2.09,0 -4.01,-0.83 -5.26,-2.08 z"
           inkscape:connector-curvature="0"
           style="fill:#000000;stroke-width:0" /></g>    </g>
    <g
       style="display:inline"
       id="g6234"
       transform="matrix(0.14407958,0,0,0.14407958,405.3405,377.0828)">
      <g
         id="g6236"
         transform="matrix(1.0629921,0,0,-1.0629921,-186.02362,789.27165)"
         xml:space="preserve"
         stroke-miterlimit="10.433"
         font-style="normal"
         font-variant="normal"
         font-weight="normal"
         font-stretch="normal"
         font-size-adjust="none"
         letter-spacing="normal"
         word-spacing="normal"
         style="font-style:normal;font-variant:normal;font-weight:normal;font-stretch:normal;letter-spacing:normal;word-spacing:normal;text-anchor:start;fill:none;fill-opacity:1;fill-rule:evenodd;stroke:#000000;stroke-linecap:butt;stroke-linejoin:miter;stroke-miterlimit:10.43299961;stroke-dasharray:none;stroke-dashoffset:0;stroke-opacity:1"><path
           d="m 479.74,425.18 0.01,0.04 0.01,0.03 0.01,0.06 0.02,0.05 0.01,0.06 0.01,0.05 0.02,0.04 0.01,0.05 0.01,0.04 0.01,0.04 0,0.04 0.01,0.04 0.01,0.04 0.01,0.03 0,0.03 0.01,0.03 0,0.03 0.01,0.03 0,0.03 0.01,0.05 0,0.06 0,0.05 0,0.05 0.01,0.05 0,0.03 0,0.03 0,0.03 0,0.03 c 0,0.91 -0.69,1.35 -1.44,1.35 -0.5,0 -1.3,-0.3 -1.75,-1.05 -0.1,-0.25 -0.5,-1.78 -0.69,-2.69 -0.36,-1.29 -0.7,-2.64 -1,-3.98 l -2.25,-8.97 c -0.19,-0.75 -2.33,-4.23 -5.62,-4.23 -2.54,0 -3.1,2.18 -3.1,4.03 0,2.29 0.86,5.39 2.55,9.76 0.8,2.05 1,2.6 1,3.6 0,2.23 -1.59,4.07 -4.09,4.07 -4.74,0 -6.58,-7.21 -6.58,-7.67 0,-0.5 0.5,-0.5 0.61,-0.5 0.5,0 0.54,0.11 0.79,0.91 1.35,4.69 3.33,6.17 5.03,6.17 0.4,0 1.25,0 1.25,-1.59 0,-1.25 -0.5,-2.53 -0.85,-3.49 -1.99,-5.28 -2.9,-8.12 -2.9,-10.47 0,-4.42 3.15,-5.92 6.08,-5.92 1.96,0 3.64,0.85 5.03,2.24 -0.64,-2.58 -1.23,-5.03 -3.23,-7.68 -1.3,-1.68 -3.19,-3.14 -5.48,-3.14 -0.69,0 -2.94,0.16 -3.79,2.1 0.8,0 1.46,0 2.14,0.61 0.5,0.43 1,1.09 1,2.03 0,1.55 -1.34,1.75 -1.84,1.75 -1.14,0 -2.8,-0.8 -2.8,-3.24 0,-2.5 2.21,-4.34 5.29,-4.34 5.14,0 10.26,4.55 11.67,10.17 z"
           id="path6238"
           inkscape:connector-curvature="0"
           style="fill:#000000;stroke-width:0" /><path
           d="m 486.94,422.95 -5.24,-0.39 0,-1.25 c 2.38,0 2.63,-0.28 2.63,-2.03 l 0,-20.52 1.17,0 1.22,2.13 c 1.33,-1.74 3.25,-2.47 5.09,-2.47 l -0.17,0.97 c -2.8,0 -4.19,2.2 -4.56,2.92 l 0,8.12 c 0.97,1.61 2.86,2.72 4.94,2.72 1.95,0 3.34,-1.11 4.04,-2.15 0.71,-1.02 1.11,-2.38 1.11,-4.68 0,-0.79 0,-3.42 -1.42,-5.04 -1.39,-1.58 -3.09,-1.89 -4.11,-1.89 l 0.17,-0.97 c 4.6,0 8.53,3.44 8.53,7.87 0,4.25 -3.57,7.83 -8.14,7.83 -2.09,0 -4.01,-0.83 -5.26,-2.08 z"
           id="path6240"
           inkscape:connector-curvature="0"
           style="fill:#000000;stroke-width:0" /></g>    </g>
    <g
       style="display:inline"
       id="g6468"
       transform="matrix(0.14033429,0,0,0.14033429,339.72605,412.95537)">
      <g
         word-spacing="normal"
         letter-spacing="normal"
         font-size-adjust="none"
         font-stretch="normal"
         font-weight="normal"
         font-variant="normal"
         font-style="normal"
         stroke-miterlimit="10.433"
         xml:space="preserve"
         transform="matrix(1.0629921,0,0,-1.0629921,-186.02362,789.27165)"
         id="g6470"
         style="font-style:normal;font-variant:normal;font-weight:normal;font-stretch:normal;letter-spacing:normal;word-spacing:normal;text-anchor:start;fill:none;fill-opacity:1;fill-rule:evenodd;stroke:#000000;stroke-linecap:butt;stroke-linejoin:miter;stroke-miterlimit:10.43299961;stroke-dasharray:none;stroke-dashoffset:0;stroke-opacity:1"><path
           id="path6472"
           d="m 462.14,410.34 0.25,0.27 0.24,0.25 0.24,0.25 0.23,0.24 0.22,0.23 0.22,0.22 0.21,0.22 0.2,0.21 0.2,0.2 0.2,0.19 0.19,0.19 0.19,0.19 0.18,0.17 0.19,0.18 0.35,0.33 0.34,0.32 0.33,0.3 0.33,0.29 0.32,0.29 0.65,0.56 0.33,0.29 0.33,0.28 c 0,0.05 3.08,2.69 4.88,4.49 4.73,4.64 5.83,7.03 5.83,7.21 0,0.5 -0.46,0.5 -0.55,0.5 -0.35,0 -0.5,-0.09 -0.75,-0.54 -1.49,-2.39 -2.53,-3.19 -3.74,-3.19 -1.2,0 -1.79,0.75 -2.54,1.59 -0.94,1.16 -1.78,2.14 -3.44,2.14 -3.73,0 -6.02,-4.62 -6.02,-5.67 0,-0.25 0.14,-0.54 0.6,-0.54 0.45,0 0.54,0.25 0.64,0.54 0.95,2.3 3.84,2.35 4.23,2.35 1.05,0 2,-0.36 3.14,-0.75 2,-0.75 2.55,-0.75 3.85,-0.75 -1.8,-2.14 -5.99,-5.74 -6.92,-6.53 l -4.49,-4.18 c -3.39,-3.34 -5.14,-6.18 -5.14,-6.53 0,-0.5 0.5,-0.5 0.59,-0.5 0.41,0 0.5,0.1 0.8,0.64 1.16,1.75 2.64,3.1 4.24,3.1 1.15,0 1.65,-0.46 2.89,-1.89 0.86,-1.05 1.75,-1.85 3.18,-1.85 4.94,0 7.83,6.33 7.83,7.67 0,0.25 -0.2,0.5 -0.59,0.5 -0.46,0 -0.55,-0.29 -0.71,-0.65 -1.14,-3.24 -4.32,-4.17 -5.98,-4.17 -0.98,0 -1.89,0.29 -2.94,0.64 -1.68,0.64 -2.43,0.84 -3.48,0.84 -0.1,0 -0.89,0 -1.35,-0.14 z"
           inkscape:connector-curvature="0"
           style="fill:#000000;stroke-width:0" /><path
           id="path6474"
           d="m 485.62,422.95 -5.24,-0.39 0,-1.25 c 2.38,0 2.63,-0.28 2.63,-2.03 l 0,-20.52 1.17,0 1.22,2.13 c 1.33,-1.74 3.25,-2.47 5.09,-2.47 l -0.17,0.97 c -2.8,0 -4.19,2.2 -4.56,2.92 l 0,8.12 c 0.97,1.61 2.86,2.72 4.94,2.72 1.95,0 3.34,-1.11 4.04,-2.15 0.71,-1.02 1.11,-2.38 1.11,-4.68 0,-0.79 0,-3.42 -1.42,-5.04 -1.39,-1.58 -3.09,-1.89 -4.11,-1.89 l 0.17,-0.97 c 4.6,0 8.53,3.44 8.53,7.87 0,4.25 -3.57,7.83 -8.14,7.83 -2.09,0 -4.01,-0.83 -5.26,-2.08 z"
           inkscape:connector-curvature="0"
           style="fill:#000000;stroke-width:0" /></g>    </g>
  </g>
</svg>
