<?xml version="1.0" encoding="UTF-8" standalone="no"?>
<!-- Created with Inkscape (http://www.inkscape.org/) -->

<svg
   xmlns:dc="http://purl.org/dc/elements/1.1/"
   xmlns:cc="http://creativecommons.org/ns#"
   xmlns:rdf="http://www.w3.org/1999/02/22-rdf-syntax-ns#"
   xmlns:svg="http://www.w3.org/2000/svg"
   xmlns="http://www.w3.org/2000/svg"
   xmlns:sodipodi="http://sodipodi.sourceforge.net/DTD/sodipodi-0.dtd"
   xmlns:inkscape="http://www.inkscape.org/namespaces/inkscape"
   id="svg2"
   version="1.1"
   inkscape:version="0.91 r13725"
   xml:space="preserve"
   width="930.06738"
   height="369.1525"
   viewBox="0 0 930.06738 369.1525"
   sodipodi:docname="ControlDiagram.svg"><sodipodi:namedview
     pagecolor="#ffffff"
     bordercolor="#666666"
     borderopacity="1"
     objecttolerance="10"
     gridtolerance="10"
     guidetolerance="10"
     inkscape:pageopacity="0"
     inkscape:pageshadow="2"
     inkscape:window-width="1366"
     inkscape:window-height="705"
     id="namedview4"
     showgrid="false"
     inkscape:zoom="3.5696338"
     inkscape:cx="805.27762"
     inkscape:cy="123.39378"
     inkscape:window-x="-8"
     inkscape:window-y="-8"
     inkscape:window-maximized="1"
     inkscape:current-layer="g10" /><metadata
     id="metadata8"><rdf:RDF><cc:Work
         rdf:about=""><dc:format>image/svg+xml</dc:format><dc:type
           rdf:resource="http://purl.org/dc/dcmitype/StillImage" /><dc:title></dc:title></cc:Work></rdf:RDF></metadata><defs
     id="defs6" /><g
     id="g10"
     inkscape:groupmode="layer"
     inkscape:label="AttitudeControlDiagram"
     transform="matrix(1.25,0,0,-1.25,0,369.15249)"><g
       transform="matrix(1,0,0,-0.99795,0,295.32199)"
       id="g14"><path
         inkscape:connector-curvature="0"
         id="path16"
         style="fill:none;stroke:#000000;stroke-width:1.60164201;stroke-linecap:butt;stroke-linejoin:miter;stroke-miterlimit:4;stroke-dasharray:none;stroke-opacity:1"
         d="m 456.195,8.204 133.715,0 0,51.034 -133.715,0 0,-51.034 z" /></g><path
       inkscape:connector-curvature="0"
       id="path20"
       style="fill:none;stroke:#000000;stroke-width:1.60000002;stroke-linecap:butt;stroke-linejoin:miter;stroke-miterlimit:4;stroke-dasharray:none;stroke-opacity:1"
       d="m 278.852,261.654 173.925,0" /><path
       inkscape:connector-curvature="0"
       id="path22"
       style="fill:#000000;fill-opacity:1;fill-rule:evenodd;stroke:#000000;stroke-width:1.10000002;stroke-linecap:butt;stroke-linejoin:round;stroke-miterlimit:4;stroke-dasharray:none;stroke-opacity:1"
       d="m 435.676,268.756 19.226,-7.071 -19.226,-7.074 c 3.07,4.176 3.051,9.887 0,14.145 z" /><path
       inkscape:connector-curvature="0"
       id="path24"
       style="fill:none;stroke:#000000;stroke-width:1.60000002;stroke-linecap:butt;stroke-linejoin:miter;stroke-miterlimit:4;stroke-dasharray:none;stroke-opacity:1"
       d="m 590.188,261.65 151.191,0" /><path
       inkscape:connector-curvature="0"
       id="path26"
       style="fill:#000000;fill-opacity:1;fill-rule:evenodd;stroke:#000000;stroke-width:1.10000002;stroke-linecap:butt;stroke-linejoin:round;stroke-miterlimit:4;stroke-dasharray:none;stroke-opacity:1"
       d="m 724.273,268.752 19.231,-7.075 -19.231,-7.07 c 3.075,4.176 3.055,9.887 0,14.145 z" /><path
       inkscape:connector-curvature="0"
       id="path34"
       style="fill:none;stroke:#000000;stroke-width:1.60000002;stroke-linecap:butt;stroke-linejoin:miter;stroke-miterlimit:4;stroke-dasharray:none;stroke-opacity:1"
       d="m 279.324,261.037 c 0,-11.664 -9.668,-21.125 -21.597,-21.125 -11.926,-0.004 -21.598,9.453 -21.602,21.117 -0.004,11.668 9.66,21.129 21.586,21.133 11.93,0.008 21.605,-9.442 21.613,-21.11" /><path
       inkscape:connector-curvature="0"
       id="path36"
       style="fill:#0064be;stroke:#000000;stroke-width:1.60000002;stroke-linecap:butt;stroke-linejoin:miter;stroke-miterlimit:4;stroke-dasharray:none;stroke-opacity:1;fill-opacity:1"
       d="m 198.555,261.83 34.64,0" /><path
       inkscape:connector-curvature="0"
       id="path38"
       style="fill:#000000;fill-opacity:1;fill-rule:evenodd;stroke:#000000;stroke-width:1.10000002;stroke-linecap:butt;stroke-linejoin:round;stroke-miterlimit:4;stroke-dasharray:none;stroke-opacity:1"
       d="m 216.094,268.931 19.226,-7.07 -19.226,-7.074 c 3.07,4.176 3.054,9.887 0,14.144 z" /><path
       inkscape:connector-curvature="0"
       id="path40"
       style="fill:none;stroke:#000000;stroke-width:1.60000002;stroke-linecap:butt;stroke-linejoin:miter;stroke-miterlimit:4;stroke-dasharray:none;stroke-opacity:1;fill-opacity:1"
       d="m 71.621,294.521 127.047,0 0,-65.32 -127.047,0 0,65.32 z" /><path
       inkscape:connector-curvature="0"
       id="path54"
       style="fill:none;stroke:#000000;stroke-width:1.60000002;stroke-linecap:butt;stroke-linejoin:miter;stroke-miterlimit:4;stroke-dasharray:none;stroke-opacity:1"
       d="m 311.99316,168.7227 150.285,0 0,-62.855 -150.285,0 0,62.855 z" /><path
       inkscape:connector-curvature="0"
       id="path56"
       style="fill:#000000;fill-opacity:1;stroke:#000000;stroke-width:1.60000002;stroke-linecap:butt;stroke-linejoin:miter;stroke-miterlimit:4;stroke-dasharray:none;stroke-opacity:1"
       d="m 530.65734,136.34666 -65.63481,0.28364" /><g
       transform="matrix(1,-0.00470919,-0.00470919,-1,24.204163,369.59997)"
       id="g58"
       style="fill:#0064be;fill-opacity:1;stroke:#0064be;stroke-opacity:1"><path
         inkscape:connector-curvature="0"
         id="path60"
         style="fill:#000000;fill-opacity:1;fill-rule:evenodd;stroke:#000000;stroke-width:1.09998798;stroke-linecap:butt;stroke-linejoin:round;stroke-miterlimit:4;stroke-dasharray:none;stroke-opacity:1"
         d="m 458.979,237.702 -19.233,-7.07 19.233,-7.071 c -3.075,4.175 -3.055,9.886 0,14.141 z" /></g><path
       inkscape:connector-curvature="0"
       id="path66"
       style="fill:#0064be;fill-opacity:1;stroke:#000000;stroke-width:1.60000002;stroke-linecap:butt;stroke-linejoin:miter;stroke-miterlimit:4;stroke-dasharray:none;stroke-opacity:1"
       d="m 529.92961,237.06607 0,-100.77476" /><path
       inkscape:connector-curvature="0"
       id="path72"
       style="fill:#000000;fill-opacity:1;stroke:#000000;stroke-width:1.5999999;stroke-linecap:butt;stroke-linejoin:miter;stroke-miterlimit:4;stroke-dasharray:none;stroke-opacity:1"
       d="m 625.95,74.723159 0,186.539841" /><path
       inkscape:connector-curvature="0"
       id="path74"
       style="fill:#0064be;fill-opacity:1;stroke:#000000;stroke-width:1.5999999;stroke-linecap:butt;stroke-linejoin:miter;stroke-miterlimit:4;stroke-dasharray:none;stroke-opacity:1"
       d="m 134.60199,75.597571 492.06745,0" /><path
       inkscape:connector-curvature="0"
       id="path76"
       style="fill:#000000;fill-opacity:1;stroke:#000000;stroke-width:1.60000002;stroke-linecap:butt;stroke-linejoin:miter;stroke-miterlimit:4;stroke-dasharray:none;stroke-opacity:1"
       d="m 135.145,76.474346 0,149.433654" /><g
       transform="matrix(0,-1,-1,0,0,295.32199)"
       id="g78"
       style="stroke:#0064be;stroke-opacity:1;fill:#0064be;fill-opacity:1"><path
         inkscape:connector-curvature="0"
         id="path80"
         style="fill:#000000;fill-opacity:1;fill-rule:evenodd;stroke:#000000;stroke-width:1.10000002;stroke-linecap:butt;stroke-linejoin:round;stroke-miterlimit:4;stroke-dasharray:none;stroke-opacity:1"
         d="m 86.516,-128.043 -19.227,-7.074 19.227,-7.071 c -3.071,4.176 -3.055,9.887 0,14.145 z" /></g><path
       inkscape:connector-curvature="0"
       id="path82"
       style="fill:#000000;stroke:#000000;stroke-width:1.60000002;stroke-linecap:butt;stroke-linejoin:miter;stroke-miterlimit:4;stroke-dasharray:none;stroke-opacity:1;fill-opacity:1"
       d="m 0,262.017 69.785,0" /><path
       inkscape:connector-curvature="0"
       id="path84"
       style="fill:#000000;fill-opacity:1;fill-rule:evenodd;stroke:#000000;stroke-width:1.10000002;stroke-linecap:butt;stroke-linejoin:round;stroke-miterlimit:4;stroke-dasharray:none;stroke-opacity:1"
       d="m 52.684,269.119 19.226,-7.07 -19.226,-7.075 c 3.07,4.176 3.054,9.887 0,14.145 z" /><path
       inkscape:connector-curvature="0"
       id="path86"
       style="fill:#0064be;fill-opacity:1;stroke:#000000;stroke-width:1.60000002;stroke-linecap:butt;stroke-linejoin:miter;stroke-miterlimit:4;stroke-dasharray:none;stroke-opacity:1"
       d="m 311.70971,139.0866 -54.81871,0" /><path
       inkscape:connector-curvature="0"
       id="path88"
       style="fill:#0064be;fill-opacity:1;stroke:#000000;stroke-width:1.60000002;stroke-linecap:butt;stroke-linejoin:miter;stroke-miterlimit:4;stroke-dasharray:none;stroke-opacity:1"
       d="m 257.234,138.16646 0,99.19454" /><g
       transform="matrix(0,-1,-1,0,0,295.32199)"
       id="g90"
       style="stroke:#0064be;stroke-opacity:1;fill:#0064be;fill-opacity:1"><path
         inkscape:connector-curvature="0"
         id="path92"
         style="fill:#000000;fill-opacity:1;fill-rule:evenodd;stroke:#000000;stroke-width:1.10000002;stroke-linecap:butt;stroke-linejoin:round;stroke-miterlimit:4;stroke-dasharray:none;stroke-opacity:1"
         d="m 75.066,-250.137 -8.289413,-3.04764 -10.940587,-4.02236 19.23,-7.07 c -3.07,4.175 -3.054,9.886 0,14.14 z"
         sodipodi:nodetypes="ccccc" /></g><path
       inkscape:connector-curvature="0"
       id="path94"
       style="fill:#000000;fill-opacity:1;fill-rule:evenodd;stroke:none"
       d="m 256.758,260.65 0.008,0.016 0.043,0.043 0.011,0.008 0.008,0.011 0.008,0.008 0.008,0.016 0.008,0.007 0.007,0.012 0.012,0.008 0.031,0.031 0.008,0 0,0.012 0.02,0.016 0.008,0.007 0.007,0.016 0.008,0.012 0.012,0.015 0.015,0.016 0,0.012 0.008,0.008 0,0.007 0.008,0.008 0,0.016 0.008,0.012 0,0.074 c 0,0.07 0,0.101 -0.184,0.316 l -7.519,9.235 9.191,0 c 3.113,0 4.746,-0.45 5.129,-0.528 1.863,-0.512 3.727,-1.742 4.457,-3.582 l 0.715,0 -2.016,5.149 -19.464,0 c -0.469,0 -0.485,-0.028 -0.59,-0.137 -0.067,-0.051 -0.067,-0.102 -0.067,-0.692 l 8.496,-10.425 -8.242,-9.25 c -0.254,-0.254 -0.254,-0.309 -0.254,-0.383 0,-0.297 0.266,-0.297 0.657,-0.297 l 19.464,0 2.016,5.441 -0.715,0 c -0.73,-1.929 -2.594,-3.043 -4.09,-3.496 -0.425,-0.117 -2.035,-0.613 -5.316,-0.613 l -9.805,0 7.891,8.871 z" /><path
       inkscape:connector-curvature="0"
       id="path96"
       style="fill:#000000;fill-opacity:1;fill-rule:evenodd;stroke:none"
       d="m 368.49316,151.9967 -2.973,0.718 c -1.437,0.348 -2.343,1.602 -2.343,2.95 0,1.625 1.254,3.039 3.066,3.039 3.871,0 4.383,-3.805 4.52,-4.852 0.027,-0.14 0.027,-0.277 0.281,-0.277 0.301,0 0.301,0.117 0.301,0.558 l 0,4.661 c 0,0.402 0,0.558 -0.254,0.558 -0.16,0 -0.192,-0.019 -0.348,-0.301 l -0.812,-1.32 c -0.7,0.672 -1.649,1.621 -3.715,1.621 -2.578,0 -4.52,-2.043 -4.52,-4.504 0,-1.922 1.231,-3.617 3.031,-4.246 0.258,-0.094 1.446,-0.367 3.067,-0.762 0.625,-0.167 1.324,-0.328 1.969,-1.183 0.492,-0.606 0.722,-1.371 0.722,-2.133 0,-1.656 -1.152,-3.324 -3.105,-3.324 -0.672,0 -2.442,0.117 -3.672,1.254 -1.348,1.254 -1.414,2.734 -1.441,3.574 -0.024,0.23 -0.204,0.23 -0.274,0.23 -0.297,0 -0.297,-0.168 -0.297,-0.582 l 0,-4.644 c 0,-0.391 0,-0.551 0.25,-0.551 0.164,0 0.184,0.043 0.348,0.301 0,0.019 0.066,0.094 0.832,1.324 0.723,-0.789 2.207,-1.625 4.277,-1.625 2.711,0 4.571,2.27 4.571,4.824 0,2.325 -1.528,4.227 -3.481,4.692 z" /><path
       inkscape:connector-curvature="0"
       id="path98"
       style="fill:#000000;fill-opacity:1;fill-rule:evenodd;stroke:none"
       d="m 377.32116,152.2697 3.321,0 0,0.723 -3.321,0 0,4.273 -0.582,0 c -0.019,-1.902 -0.719,-4.39 -2.988,-4.476 l 0,-0.52 1.973,0 0,-6.406 c 0,-2.852 2.152,-3.129 2.988,-3.129 1.644,0 2.297,1.645 2.297,3.129 l 0,1.324 -0.582,0 0,-1.273 c 0,-1.719 -0.7,-2.598 -1.551,-2.598 -1.555,0 -1.555,2.109 -1.555,2.508 l 0,6.445 z" /><path
       inkscape:connector-curvature="0"
       id="path100"
       style="fill:#000000;fill-opacity:1;fill-rule:evenodd;stroke:none"
       d="m 390.04016,144.7507 0.004,-0.086 0.031,-0.172 0.02,-0.086 0.023,-0.09 0.024,-0.082 0.027,-0.086 0.07,-0.164 0.078,-0.164 0.043,-0.074 0.047,-0.074 0.051,-0.075 0.051,-0.078 0.058,-0.062 0.059,-0.067 0.062,-0.066 0.063,-0.059 0.066,-0.054 0.071,-0.059 0.152,-0.094 0.074,-0.039 0.086,-0.039 0.082,-0.031 0.086,-0.027 0.094,-0.024 0.09,-0.019 0.093,-0.016 0.098,-0.008 0.106,-0.004 c 0.476,0 1.902,0.328 1.902,2.207 l 0,1.297 -0.582,0 0,-1.297 c 0,-1.347 -0.582,-1.484 -0.844,-1.484 -0.762,0 -0.855,1.039 -0.855,1.152 l 0,4.645 c 0,0.98 0,1.879 -0.836,2.742 -0.907,0.898 -2.063,1.269 -3.176,1.269 -1.91,0 -3.508,-1.085 -3.508,-2.617 0,-0.695 0.469,-1.093 1.067,-1.093 0.652,0 1.07,0.464 1.07,1.07 0,0.273 -0.113,1.039 -1.188,1.07 0.629,0.809 1.766,1.063 2.508,1.063 1.141,0 2.461,-0.903 2.461,-2.973 l 0,-3.664 c 0,-2.211 -1.668,-2.992 -2.719,-2.992 -1.136,0 -2.086,0.816 -2.086,1.972 0,1.27 0.977,3.204 4.805,3.34 l 0,0.489 c -1.18,-0.067 -2.805,-0.141 -4.269,-0.84 -1.739,-0.785 -2.321,-1.993 -2.321,-3.012 0,-1.879 2.25,-2.461 3.715,-2.461 1.531,0 2.594,0.926 3.047,2.016 z" /><path
       inkscape:connector-curvature="0"
       id="path102"
       style="fill:#000000;fill-opacity:1;fill-rule:evenodd;stroke:none"
       d="m 397.95016,152.2697 3.317,0 0,0.723 -3.317,0 0,4.273 -0.582,0 c -0.023,-1.902 -0.723,-4.39 -2.992,-4.476 l 0,-0.52 1.973,0 0,-6.406 c 0,-2.852 2.152,-3.129 2.988,-3.129 1.644,0 2.305,1.645 2.305,3.129 l 0,1.324 -0.586,0 0,-1.273 c 0,-1.719 -0.696,-2.598 -1.555,-2.598 -1.551,0 -1.551,2.109 -1.551,2.508 l 0,6.445 z" /><path
       inkscape:connector-curvature="0"
       id="path104"
       style="fill:#000000;fill-opacity:1;fill-rule:evenodd;stroke:none"
       d="m 405.50516,148.3517 0.023,0.488 c 0.141,3.458 2.09,4.036 2.879,4.036 2.391,0 2.625,-3.129 2.625,-4.036 l -5.504,0 -0.023,-0.488 6.48,0 c 0.508,0 0.574,0 0.574,0.488 0,2.293 -1.253,4.543 -4.152,4.543 -2.691,0 -4.824,-2.382 -4.824,-5.293 0,-3.105 2.43,-5.355 5.105,-5.355 2.832,0 3.871,2.574 3.871,3.016 0,0.23 -0.179,0.281 -0.296,0.281 -0.211,0 -0.258,-0.137 -0.305,-0.324 -0.809,-2.391 -2.902,-2.391 -3.133,-2.391 -1.168,0 -2.09,0.695 -2.617,1.551 -0.703,1.113 -0.703,2.652 -0.703,3.484 z" /><path
       inkscape:connector-curvature="0"
       id="path106"
       style="fill:#000000;fill-opacity:1;fill-rule:evenodd;stroke:none"
       d="m 353.10216,130.9337 -12.746,0 0,-0.722 0.559,0 c 1.785,0 1.836,-0.258 1.836,-1.086 l 0,-12.164 c 0,-0.832 -0.051,-1.09 -1.836,-1.09 l -0.559,0 0,-0.723 c 0.817,0.074 2.629,0.074 3.532,0.074 0.953,0 3.062,0 3.902,-0.074 l 0,0.723 -0.77,0 c -2.207,0 -2.207,0.297 -2.207,1.113 l 0,5.707 2,0 c 2.227,0 2.461,-0.742 2.461,-2.715 l 0.575,0 0,6.149 -0.575,0 c 0,-1.946 -0.234,-2.711 -2.461,-2.711 l -2,0 0,5.875 c 0,0.765 0.051,0.922 1.145,0.922 l 2.777,0 c 3.489,0 4.063,-1.297 4.434,-4.5 l 0.582,0 -0.649,5.222 z" /><path
       inkscape:connector-curvature="0"
       id="path108"
       style="fill:#000000;fill-opacity:1;fill-rule:evenodd;stroke:none"
       d="m 355.36416,120.5157 0.024,0.485 c 0.132,3.461 2.086,4.035 2.879,4.035 2.39,0 2.621,-3.129 2.621,-4.035 l -5.5,0 -0.024,-0.485 6.481,0 c 0.507,0 0.574,0 0.574,0.485 0,2.297 -1.254,4.543 -4.152,4.543 -2.692,0 -4.833,-2.387 -4.833,-5.293 0,-3.106 2.434,-5.356 5.11,-5.356 2.836,0 3.875,2.578 3.875,3.012 0,0.234 -0.184,0.285 -0.301,0.285 -0.211,0 -0.254,-0.137 -0.305,-0.324 -0.808,-2.391 -2.894,-2.391 -3.129,-2.391 -1.164,0 -2.089,0.692 -2.621,1.551 -0.699,1.113 -0.699,2.648 -0.699,3.488 z" /><path
       inkscape:connector-curvature="0"
       id="path110"
       style="fill:#000000;fill-opacity:1;fill-rule:evenodd;stroke:none"
       d="m 365.64916,120.5157 0.024,0.485 c 0.136,3.461 2.09,4.035 2.879,4.035 2.39,0 2.625,-3.129 2.625,-4.035 l -5.504,0 -0.024,-0.485 6.477,0 c 0.512,0 0.574,0 0.574,0.485 0,2.297 -1.25,4.543 -4.148,4.543 -2.692,0 -4.828,-2.387 -4.828,-5.293 0,-3.106 2.433,-5.356 5.109,-5.356 2.824,0 3.867,2.578 3.867,3.012 0,0.234 -0.18,0.285 -0.293,0.285 -0.211,0 -0.258,-0.137 -0.308,-0.324 -0.805,-2.391 -2.899,-2.391 -3.133,-2.391 -1.164,0 -2.086,0.692 -2.617,1.551 -0.7,1.113 -0.7,2.648 -0.7,3.488 z" /><path
       inkscape:connector-curvature="0"
       id="path112"
       style="fill:#000000;fill-opacity:1;fill-rule:evenodd;stroke:none"
       d="m 382.18116,116.4257 0,-1.531 3.41,0.254 0,0.723 c -1.625,0 -1.809,0.16 -1.809,1.297 l 0,14.089 -3.34,-0.253 0,-0.719 c 1.621,0 1.801,-0.164 1.801,-1.305 l 0,-5.008 c -0.668,0.828 -1.66,1.434 -2.922,1.434 l 0.098,-0.512 c 0.812,0 1.789,-0.347 2.508,-1.387 0.254,-0.39 0.254,-0.441 0.254,-0.859 l 0,-4.762 c 0,-0.414 0,-0.464 -0.254,-0.859 -0.696,-1.113 -1.746,-1.621 -2.743,-1.621 -1.042,0 -1.882,0.605 -2.433,1.484 -0.606,0.953 -0.68,2.278 -0.68,3.227 0,0.855 0.047,2.254 0.723,3.297 0.488,0.718 1.371,1.48 2.625,1.48 l -0.098,0.512 c -2.738,0 -5.179,-2.274 -5.179,-5.262 0,-2.949 2.281,-5.25 4.925,-5.25 1.481,0 2.532,0.785 3.114,1.531 z" /><path
       inkscape:connector-curvature="0"
       id="path114"
       style="fill:#000000;fill-opacity:1;fill-rule:evenodd;stroke:none"
       d="m 390.26316,123.8987 0,7.359 -3.344,-0.253 0,-0.719 c 1.625,0 1.816,-0.164 1.816,-1.305 l 0,-13.832 0.582,0 c 0.02,0.024 0.2,0.352 0.828,1.445 0.348,-0.539 1.325,-1.699 3.043,-1.699 l -0.097,0.512 c -1.039,0 -1.879,0.558 -2.426,1.422 -0.332,0.484 -0.332,0.547 -0.332,0.961 l 0,4.785 c 0,0.445 0,0.469 0.258,0.84 0.902,1.3 2.183,1.48 2.734,1.48 1.043,0 1.887,-0.601 2.442,-1.48 0.601,-0.957 0.675,-2.274 0.675,-3.231 0,-0.855 -0.054,-2.242 -0.718,-3.293 -0.489,-0.722 -1.372,-1.484 -2.633,-1.484 l 0.097,-0.512 c 2.762,0 5.176,2.274 5.176,5.274 0,2.949 -2.273,5.238 -4.926,5.238 -1.8,0 -2.808,-1.094 -3.175,-1.508 z" /><path
       inkscape:connector-curvature="0"
       id="path116"
       style="fill:#000000;fill-opacity:1;fill-rule:evenodd;stroke:none"
       d="m 406.91916,116.9107 0.008,-0.082 0.015,-0.09 0.008,-0.09 0.027,-0.082 0.024,-0.09 0.023,-0.082 0.028,-0.086 0.035,-0.082 0.031,-0.086 0.039,-0.078 0.043,-0.078 0.043,-0.082 0.047,-0.074 0.051,-0.074 0.051,-0.071 0.058,-0.07 0.059,-0.063 0.062,-0.066 0.063,-0.059 0.066,-0.058 0.07,-0.051 0.075,-0.051 0.074,-0.047 0.074,-0.043 0.082,-0.035 0.09,-0.035 0.086,-0.027 0.094,-0.024 0.086,-0.015 0.097,-0.016 0.098,-0.008 0.105,-0.008 c 0.481,0 1.895,0.332 1.895,2.211 l 0,1.293 -0.582,0 0,-1.293 c 0,-1.347 -0.574,-1.488 -0.832,-1.488 -0.766,0 -0.86,1.043 -0.86,1.16 l 0,4.641 c 0,0.98 0,1.883 -0.832,2.738 -0.91,0.906 -2.07,1.274 -3.183,1.274 -1.906,0 -3.512,-1.082 -3.512,-2.618 0,-0.695 0.469,-1.089 1.074,-1.089 0.649,0 1.075,0.464 1.075,1.066 0,0.277 -0.118,1.043 -1.192,1.07 0.625,0.805 1.762,1.063 2.508,1.063 1.141,0 2.461,-0.903 2.461,-2.969 l 0,-3.672 c 0,-2.203 -1.668,-2.988 -2.719,-2.988 -1.133,0 -2.086,0.816 -2.086,1.969 0,1.277 0.973,3.207 4.805,3.339 l 0,0.493 c -1.18,-0.067 -2.805,-0.141 -4.27,-0.84 -1.738,-0.781 -2.324,-1.992 -2.324,-3.008 0,-1.883 2.25,-2.465 3.711,-2.465 1.539,0 2.602,0.926 3.051,2.016 z" /><path
       inkscape:connector-curvature="0"
       id="path118"
       style="fill:#000000;fill-opacity:1;fill-rule:evenodd;stroke:none"
       d="m 413.52816,120.2077 0,0.179 0.004,0.172 0.008,0.164 0.008,0.16 0.011,0.165 0.016,0.152 0.02,0.156 0.019,0.145 0.024,0.144 0.019,0.141 0.027,0.137 0.028,0.132 0.062,0.254 0.071,0.242 0.082,0.227 0.082,0.211 0.09,0.203 0.097,0.184 0.102,0.179 0.105,0.164 0.117,0.153 0.118,0.14 0.117,0.125 0.125,0.121 0.125,0.106 0.125,0.098 0.133,0.089 0.129,0.079 0.132,0.07 0.133,0.062 0.133,0.051 0.129,0.043 0.129,0.035 0.133,0.028 0.125,0.023 0.121,0.016 0.121,0.007 0.117,0.004 c 0.203,0 1.668,-0.023 2.48,-0.855 -0.953,-0.074 -1.089,-0.766 -1.089,-1.07 0,-0.606 0.418,-1.075 1.07,-1.075 0.598,0 1.066,0.403 1.066,1.098 0,1.578 -1.765,2.477 -3.554,2.477 -2.899,0 -5.039,-2.5 -5.039,-5.375 0,-2.973 2.304,-5.274 4.996,-5.274 3.105,0 3.847,2.789 3.847,3.012 0,0.234 -0.234,0.234 -0.297,0.234 -0.211,0 -0.257,-0.086 -0.304,-0.234 -0.672,-2.152 -2.184,-2.43 -3.035,-2.43 -1.231,0 -3.278,1 -3.278,4.731 z" /><path
       inkscape:connector-curvature="0"
       id="path120"
       style="fill:#000000;fill-opacity:1;fill-rule:evenodd;stroke:none"
       d="m 422.88816,116.9107 0,-0.094 -0.008,-0.172 -0.004,-0.074 -0.012,-0.074 -0.008,-0.067 -0.015,-0.066 -0.02,-0.055 -0.015,-0.051 -0.024,-0.05 -0.027,-0.043 -0.031,-0.043 -0.032,-0.032 -0.035,-0.031 -0.043,-0.035 -0.047,-0.023 -0.05,-0.02 -0.118,-0.039 -0.066,-0.016 -0.07,-0.011 -0.079,-0.012 -0.082,-0.008 -0.085,-0.008 -0.047,0 -0.051,-0.007 -0.051,0 -0.047,-0.004 -0.105,0 -0.059,-0.004 -0.582,0 0,-0.723 c 0.77,0.024 1.856,0.074 2.535,0.074 0.692,0 1.621,-0.027 2.555,-0.074 l 0,0.723 c -1.563,0 -1.813,0 -1.813,1.039 l 0,2.394 1.485,1.278 c 1.781,-2.461 2.758,-3.754 2.758,-4.18 0,-0.438 -0.395,-0.531 -0.828,-0.531 l 0,-0.723 c 0.648,0.024 2.015,0.074 2.5,0.074 0.671,0 1.347,-0.027 2.015,-0.074 l 0,0.723 c -0.855,0 -1.367,0 -2.25,1.23 l -2.945,4.156 c -0.02,0.043 -0.137,0.18 -0.137,0.254 0,0.09 1.645,1.489 1.875,1.668 1.465,1.184 2.442,1.231 2.93,1.25 l 0,0.723 c -0.672,-0.066 -0.981,-0.066 -1.621,-0.066 -0.84,0 -2.285,0.043 -2.602,0.066 l 0,-0.723 c 0.434,-0.019 0.668,-0.273 0.668,-0.574 0,-0.465 -0.316,-0.738 -0.508,-0.906 l -3.277,-2.832 0,11.14 -3.34,-0.253 0,-0.719 c 1.621,0 1.813,-0.164 1.813,-1.305 l 0,-12.07 z" /><path
       inkscape:connector-curvature="0"
       id="path122"
       style="fill:#000000;fill-opacity:1;fill-rule:evenodd;stroke:none"
       d="m 101.063,284.384 0,0.149 0.007,0.141 0.004,0.058 0.004,0.063 0.012,0.058 0.012,0.051 0.015,0.059 0.02,0.046 0.015,0.043 0.032,0.043 0.027,0.043 0.074,0.075 0.043,0.031 0.051,0.031 0.055,0.027 0.027,0.012 0.035,0.016 0.031,0.008 0.032,0.015 0.039,0.008 0.035,0.012 0.039,0.008 0.043,0.007 0.039,0.012 0.047,0.008 0.047,0.012 0.047,0.004 0.05,0.003 0.059,0.008 0.051,0.004 0.058,0.008 0.051,0.004 0.133,0.008 0.062,0.004 0.067,0 0.07,0.007 0.074,0 0.075,0.004 0.925,0 0,0.723 c -0.812,-0.074 -2.644,-0.074 -3.531,-0.074 -0.898,0 -2.734,0 -3.547,0.074 l 0,-0.723 0.606,0 c 1.828,0 1.898,-0.254 1.898,-1.09 l 0,-12.23 c 0,-0.84 -0.07,-1.09 -1.898,-1.09 l -0.606,0 0,-0.722 c 0.813,0.074 2.649,0.074 3.531,0.074 0.903,0 2.735,0 3.547,-0.074 l 0,0.722 -0.597,0 c -1.836,0 -1.91,0.25 -1.91,1.09 l 0,12.23 z" /><path
       inkscape:connector-curvature="0"
       id="path124"
       style="fill:#000000;fill-opacity:1;fill-rule:evenodd;stroke:none"
       d="m 106.781,278.326 0,-6.223 c 0,-1.039 -0.25,-1.039 -1.812,-1.039 l 0,-0.722 c 0.816,0.023 1.996,0.074 2.625,0.074 0.601,0 1.812,-0.051 2.597,-0.074 l 0,0.722 c -1.55,0 -1.808,0 -1.808,1.039 l 0,4.274 c 0,2.418 1.644,3.711 3.133,3.711 1.461,0 1.718,-1.254 1.718,-2.575 l 0,-5.41 c 0,-1.039 -0.257,-1.039 -1.812,-1.039 l 0,-0.722 c 0.816,0.023 2,0.074 2.629,0.074 0.601,0 1.801,-0.051 2.597,-0.074 l 0,0.722 c -1.21,0 -1.793,0 -1.82,0.699 l 0,4.43 c 0,1.996 0,2.715 -0.715,3.547 -0.324,0.398 -1.093,0.855 -2.429,0.855 -1.696,0 -2.793,-0.996 -3.438,-2.425 l 0,2.425 -3.277,-0.25 0,-0.722 c 1.629,0 1.812,-0.16 1.812,-1.297 z" /><path
       inkscape:connector-curvature="0"
       id="path126"
       style="fill:#000000;fill-opacity:1;fill-rule:evenodd;stroke:none"
       d="m 120.492,279.623 3.317,0 0,0.722 -3.317,0 0,4.27 -0.582,0 c -0.023,-1.898 -0.722,-4.387 -2.996,-4.477 l 0,-0.515 1.977,0 0,-6.406 c 0,-2.852 2.148,-3.133 2.992,-3.133 1.644,0 2.301,1.648 2.301,3.133 l 0,1.324 -0.582,0 0,-1.274 c 0,-1.718 -0.7,-2.597 -1.563,-2.597 -1.547,0 -1.547,2.109 -1.547,2.504 l 0,6.449 z" /><path
       inkscape:connector-curvature="0"
       id="path128"
       style="fill:#000000;fill-opacity:1;fill-rule:evenodd;stroke:none"
       d="m 128.051,275.705 0.015,0.488 c 0.137,3.457 2.094,4.035 2.887,4.035 2.391,0 2.621,-3.133 2.621,-4.035 l -5.508,0 -0.015,-0.488 6.472,0 c 0.516,0 0.579,0 0.579,0.488 0,2.293 -1.25,4.543 -4.149,4.543 -2.695,0 -4.832,-2.387 -4.832,-5.293 0,-3.105 2.438,-5.359 5.109,-5.359 2.829,0 3.872,2.578 3.872,3.015 0,0.235 -0.18,0.285 -0.297,0.285 -0.215,0 -0.258,-0.14 -0.309,-0.328 -0.805,-2.386 -2.898,-2.386 -3.129,-2.386 -1.164,0 -2.086,0.691 -2.621,1.55 -0.695,1.114 -0.695,2.649 -0.695,3.485 z" /><path
       inkscape:connector-curvature="0"
       id="path130"
       style="fill:#000000;fill-opacity:1;fill-rule:evenodd;stroke:none"
       d="m 138.219,273.427 0,0.122 0.004,0.027 0,0.023 0.007,0.032 0.004,0.027 0.004,0.035 0.004,0.031 0.012,0.035 0.004,0.04 0.008,0.039 0.011,0.035 0.012,0.039 0.008,0.039 0.047,0.129 0.019,0.039 0.02,0.047 0.023,0.043 0.024,0.047 0.023,0.043 0.027,0.046 0.028,0.039 0.031,0.047 0.035,0.043 0.035,0.047 c 0.911,-0.648 1.856,-0.722 2.305,-0.722 l 0,0.531 c -2.027,0 -2.027,2.324 -2.027,2.859 0,0.629 0.027,1.371 0.371,1.945 0.191,0.282 0.722,0.93 1.656,0.93 2.016,0 2.016,-2.32 2.016,-2.851 0,-0.625 -0.024,-1.368 -0.371,-1.95 -0.188,-0.277 -0.723,-0.933 -1.645,-0.933 l 0,-0.531 c 2.152,0 3.75,1.601 3.75,3.39 0,0.863 -0.375,1.719 -0.941,2.25 0.828,0.789 1.668,0.906 2.086,0.906 0.046,0 0.164,0 0.23,-0.023 -0.258,-0.094 -0.367,-0.352 -0.367,-0.625 0,-0.395 0.301,-0.672 0.668,-0.672 0.234,0 0.672,0.16 0.672,0.692 0,0.394 -0.278,1.136 -1.184,1.136 -0.461,0 -1.48,-0.14 -2.457,-1.086 -0.976,0.762 -1.949,0.828 -2.457,0.828 -2.168,0 -3.766,-1.597 -3.766,-3.382 0,-1.02 0.508,-1.907 1.09,-2.395 -0.297,-0.344 -0.718,-1.113 -0.718,-1.922 0,-0.719 0.304,-1.597 1.027,-2.066 -1.399,-0.395 -2.141,-1.391 -2.141,-2.324 0,-1.668 2.297,-2.95 5.129,-2.95 l 0.024,0.532 c -2.344,0 -3.946,1.187 -3.946,2.418 0,1.07 0.883,1.929 1.907,1.996 l 1.371,0 c 1.992,0 4.593,0 4.593,-1.996 0,-1.254 -1.644,-2.418 -3.925,-2.418 l -0.024,-0.532 c 2.742,0 5.153,1.188 5.153,2.996 0,0.817 -0.325,2 -1.504,2.649 -1.231,0.644 -2.575,0.644 -3.996,0.644 -0.583,0 -1.579,0 -1.739,0.024 -0.746,0.094 -1.23,0.816 -1.23,1.558 z" /><path
       inkscape:connector-curvature="0"
       id="path132"
       style="fill:#000000;fill-opacity:1;fill-rule:evenodd;stroke:none"
       d="m 151.254,278.052 0,2.543 -3.223,-0.25 0,-0.722 c 1.625,0 1.813,-0.16 1.813,-1.297 l 0,-6.223 c 0,-1.039 -0.254,-1.039 -1.813,-1.039 l 0,-0.722 c 0.914,0.023 1.992,0.074 2.653,0.074 0.921,0 2.015,0 2.949,-0.074 l 0,0.722 -0.492,0 c -1.719,0 -1.77,0.25 -1.77,1.09 l 0,3.574 c 0,2.293 0.981,4.36 2.746,4.36 0.16,0 0.203,0 0.254,-0.024 -0.07,-0.019 -0.535,-0.297 -0.535,-0.898 0,-0.657 0.484,-0.996 1,-0.996 0.418,0 1,0.273 1,1.015 0,0.746 -0.719,1.41 -1.719,1.41 -1.703,0 -2.531,-1.546 -2.863,-2.543 z" /><path
       inkscape:connector-curvature="0"
       id="path134"
       style="fill:#000000;fill-opacity:1;fill-rule:evenodd;stroke:none"
       d="m 164.227,272.103 0.011,-0.09 0.016,-0.082 0.012,-0.089 0.019,-0.083 0.024,-0.089 0.027,-0.082 0.027,-0.086 0.035,-0.082 0.032,-0.086 0.039,-0.078 0.039,-0.086 0.14,-0.223 0.055,-0.074 0.059,-0.067 0.054,-0.062 0.063,-0.067 0.062,-0.062 0.137,-0.109 0.074,-0.047 0.078,-0.047 0.079,-0.043 0.164,-0.07 0.09,-0.028 0.089,-0.023 0.09,-0.02 0.098,-0.011 0.098,-0.008 0.101,-0.008 c 0.484,0 1.899,0.332 1.899,2.211 l 0,1.293 -0.583,0 0,-1.293 c 0,-1.348 -0.574,-1.488 -0.832,-1.488 -0.765,0 -0.863,1.039 -0.863,1.156 l 0,4.644 c 0,0.977 0,1.879 -0.832,2.739 -0.906,0.898 -2.066,1.273 -3.18,1.273 -1.906,0 -3.507,-1.086 -3.507,-2.617 0,-0.695 0.464,-1.098 1.07,-1.098 0.648,0 1.074,0.469 1.074,1.074 0,0.274 -0.121,1.039 -1.191,1.071 0.625,0.804 1.761,1.062 2.504,1.062 1.144,0 2.461,-0.902 2.461,-2.972 l 0,-3.668 c 0,-2.207 -1.664,-2.989 -2.711,-2.989 -1.137,0 -2.094,0.813 -2.094,1.969 0,1.274 0.976,3.207 4.805,3.34 l 0,0.492 c -1.18,-0.066 -2.801,-0.141 -4.27,-0.84 -1.738,-0.789 -2.32,-1.996 -2.32,-3.015 0,-1.875 2.25,-2.461 3.715,-2.461 1.535,0 2.597,0.929 3.043,2.019 z" /><path
       inkscape:connector-curvature="0"
       id="path136"
       style="fill:#000000;fill-opacity:1;fill-rule:evenodd;stroke:none"
       d="m 172.23,286.451 -3.343,-0.254 0,-0.723 c 1.621,0 1.812,-0.16 1.812,-1.3 l 0,-12.071 c 0,-1.039 -0.254,-1.039 -1.812,-1.039 l 0,-0.722 c 0.765,0.023 1.996,0.074 2.578,0.074 0.582,0 1.719,-0.051 2.574,-0.074 l 0,0.722 c -1.555,0 -1.809,0 -1.809,1.039 l 0,14.348 z" /><path
       inkscape:connector-curvature="0"
       id="path138"
       style="fill:#000000;fill-opacity:1;fill-rule:evenodd;stroke:none"
       d="m 97.148,250.435 0.008,-0.449 0.035,-0.437 0.051,-0.434 0.074,-0.422 0.094,-0.414 0.11,-0.406 0.132,-0.395 0.149,-0.386 0.168,-0.379 0.179,-0.364 0.204,-0.355 0.211,-0.34 0.226,-0.328 0.246,-0.32 0.254,-0.301 0.277,-0.293 0.278,-0.278 0.301,-0.257 0.304,-0.25 0.321,-0.231 0.324,-0.215 0.34,-0.199 0.343,-0.183 0.36,-0.165 0.359,-0.148 0.371,-0.125 0.379,-0.113 0.387,-0.09 0.39,-0.07 0.391,-0.051 0.402,-0.035 0.399,-0.008 c 3.789,0 6.058,3.223 6.058,5.914 0,0.234 0,0.394 -0.296,0.394 -0.254,0 -0.254,-0.136 -0.278,-0.371 -0.191,-3.32 -2.668,-5.222 -5.203,-5.222 -1.41,0 -5.965,0.789 -5.965,7.707 0,6.941 4.532,7.73 5.942,7.73 2.535,0 4.601,-2.113 5.058,-5.504 0.047,-0.32 0.047,-0.394 0.375,-0.394 0.367,0 0.367,0.074 0.367,0.562 l 0,5.492 c 0,0.403 0,0.567 -0.25,0.567 -0.089,0 -0.183,0 -0.375,-0.281 l -1.156,-1.715 c -0.859,0.836 -2.043,1.996 -4.277,1.996 -4.336,0 -8.067,-3.695 -8.067,-8.434 z" /><path
       inkscape:connector-curvature="0"
       id="path140"
       style="fill:#000000;fill-opacity:1;fill-rule:evenodd;stroke:none"
       d="m 123.551,247.467 -0.012,0.277 -0.019,0.273 -0.032,0.27 -0.047,0.265 -0.054,0.262 -0.071,0.254 -0.086,0.254 -0.089,0.246 -0.106,0.238 -0.109,0.239 -0.125,0.222 -0.137,0.223 -0.144,0.215 -0.149,0.207 -0.168,0.195 -0.168,0.192 -0.176,0.175 -0.187,0.172 -0.195,0.164 -0.2,0.153 -0.211,0.14 -0.214,0.129 -0.223,0.121 -0.223,0.114 -0.234,0.097 -0.238,0.082 -0.243,0.074 -0.246,0.063 -0.254,0.051 -0.253,0.031 -0.262,0.023 -0.262,0.008 -0.019,-0.508 c 1.015,0 2.015,-0.507 2.621,-1.507 0.605,-0.997 0.605,-2.348 0.605,-3.227 0,-0.836 0,-2.086 -0.512,-3.109 -0.507,-1.047 -1.531,-1.719 -2.695,-1.719 -1,0 -2.016,0.492 -2.641,1.551 -0.582,1.031 -0.582,2.441 -0.582,3.277 0,0.902 0,2.156 0.555,3.18 0.633,1.062 1.719,1.554 2.649,1.554 l 0.019,0.508 c -2.898,0 -5.152,-2.527 -5.152,-5.429 0,-2.993 2.418,-5.223 5.133,-5.223 2.808,0 5.156,2.273 5.156,5.223 z" /><path
       inkscape:connector-curvature="0"
       id="path142"
       style="fill:#000000;fill-opacity:1;fill-rule:evenodd;stroke:none"
       d="m 126.797,250.486 0,-6.223 c 0,-1.039 -0.258,-1.039 -1.813,-1.039 l 0,-0.722 c 0.817,0.023 1.993,0.074 2.618,0.074 0.601,0 1.812,-0.051 2.601,-0.074 l 0,0.722 c -1.551,0 -1.805,0 -1.805,1.039 l 0,4.27 c 0,2.418 1.641,3.715 3.133,3.715 1.461,0 1.711,-1.25 1.711,-2.578 l 0,-5.407 c 0,-1.039 -0.25,-1.039 -1.808,-1.039 l 0,-0.722 c 0.812,0.023 2,0.074 2.625,0.074 0.605,0 1.808,-0.051 2.601,-0.074 l 0,0.722 c -1.207,0 -1.789,0 -1.812,0.7 l 0,4.429 c 0,1.996 0,2.715 -0.727,3.543 -0.312,0.403 -1.086,0.863 -2.422,0.863 -1.703,0 -2.793,-0.996 -3.441,-2.433 l 0,2.433 -3.274,-0.257 0,-0.719 c 1.621,0 1.813,-0.16 1.813,-1.297 z" /><path
       inkscape:connector-curvature="0"
       id="path144"
       style="fill:#000000;fill-opacity:1;fill-rule:evenodd;stroke:none"
       d="m 140.504,251.783 3.32,0 0,0.719 -3.32,0 0,4.273 -0.582,0 c -0.02,-1.902 -0.719,-4.387 -2.992,-4.476 l 0,-0.516 1.968,0 0,-6.406 c 0,-2.852 2.161,-3.133 2.997,-3.133 1.644,0 2.296,1.648 2.296,3.133 l 0,1.328 -0.582,0 0,-1.278 c 0,-1.714 -0.699,-2.601 -1.554,-2.601 -1.551,0 -1.551,2.117 -1.551,2.508 l 0,6.449 z" /><path
       inkscape:connector-curvature="0"
       id="path146"
       style="fill:#000000;fill-opacity:1;fill-rule:evenodd;stroke:none"
       d="m 149.359,250.213 0,2.546 -3.23,-0.257 0,-0.719 c 1.629,0 1.812,-0.16 1.812,-1.297 l 0,-6.223 c 0,-1.039 -0.25,-1.039 -1.812,-1.039 l 0,-0.722 c 0.91,0.023 2,0.074 2.652,0.074 0.922,0 2.016,0 2.949,-0.074 l 0,0.722 -0.488,0 c -1.715,0 -1.765,0.254 -1.765,1.09 l 0,3.574 c 0,2.293 0.972,4.36 2.742,4.36 0.16,0 0.195,0 0.254,-0.02 -0.071,-0.023 -0.539,-0.297 -0.539,-0.902 0,-0.656 0.48,-1 1.004,-1 0.414,0 0.996,0.277 0.996,1.023 0,0.739 -0.719,1.41 -1.715,1.41 -1.696,0 -2.535,-1.55 -2.86,-2.546 z" /><path
       inkscape:connector-curvature="0"
       id="path148"
       style="fill:#000000;fill-opacity:1;fill-rule:evenodd;stroke:none"
       d="m 165.531,247.467 -0.008,0.277 -0.027,0.273 -0.027,0.27 -0.043,0.265 -0.059,0.262 -0.07,0.254 -0.078,0.254 -0.098,0.246 -0.098,0.238 -0.117,0.239 -0.125,0.222 -0.133,0.223 -0.144,0.215 -0.152,0.207 -0.164,0.195 -0.172,0.192 -0.176,0.175 -0.188,0.172 -0.199,0.164 -0.195,0.153 -0.211,0.14 -0.219,0.129 -0.215,0.121 -0.23,0.114 -0.231,0.097 -0.238,0.082 -0.242,0.074 -0.246,0.063 -0.254,0.051 -0.258,0.031 -0.254,0.023 -0.262,0.008 -0.027,-0.508 c 1.027,0 2.024,-0.507 2.625,-1.507 0.606,-0.997 0.606,-2.348 0.606,-3.227 0,-0.836 0,-2.086 -0.508,-3.109 -0.516,-1.047 -1.528,-1.719 -2.696,-1.719 -1,0 -2.015,0.492 -2.644,1.551 -0.582,1.031 -0.582,2.441 -0.582,3.277 0,0.902 0,2.156 0.555,3.18 0.632,1.062 1.718,1.554 2.644,1.554 l 0.027,0.508 c -2.894,0 -5.156,-2.527 -5.156,-5.429 0,-2.993 2.418,-5.223 5.129,-5.223 2.817,0 5.16,2.273 5.16,5.223 z" /><path
       inkscape:connector-curvature="0"
       id="path150"
       style="fill:#000000;fill-opacity:1;fill-rule:evenodd;stroke:none"
       d="m 170.328,258.611 -3.34,-0.258 0,-0.715 c 1.621,0 1.813,-0.164 1.813,-1.304 l 0,-12.071 c 0,-1.039 -0.262,-1.039 -1.813,-1.039 l 0,-0.722 c 0.758,0.023 1.992,0.074 2.575,0.074 0.582,0 1.718,-0.051 2.578,-0.074 l 0,0.722 c -1.555,0 -1.813,0 -1.813,1.039 l 0,14.348 z" /><path
       inkscape:connector-curvature="0"
       id="path196"
       style="fill:#000000;fill-opacity:1;fill-rule:evenodd;stroke:none"
       d="m 670.02,281.892 0.039,0.071 0.035,0.066 0.023,0.035 0.016,0.028 0.023,0.027 0.02,0.027 0.027,0.031 0.024,0.028 0.035,0.019 0.031,0.024 0.035,0.023 0.039,0.024 0.043,0.019 0.051,0.02 0.051,0.015 0.054,0.016 0.063,0.016 0.074,0.011 0.07,0.02 0.079,0.008 0.046,0.007 0.043,0.004 0.047,0.008 0.051,0.004 0.047,0 0.051,0.008 0.058,0.004 0.055,0 0.055,0.004 0.062,0 0.063,0.008 0.058,0 0.067,0.003 0.14,0 0.075,0.008 0.312,0 0,1.305 c -0.664,-0.059 -1.504,-0.082 -2.199,-0.082 -0.688,0 -1.945,0.062 -2.531,0.082 l 0,-1.305 c 0.062,0 1.304,0 1.304,-0.332 0,-0.039 -0.109,-0.304 -0.136,-0.34 l -3.192,-6.839 -3.535,7.511 1.504,0 0,1.305 c -0.922,-0.059 -3.426,-0.082 -3.457,-0.082 -0.777,0 -2.027,0.062 -3.168,0.082 l 0,-1.305 1.777,0 5.203,-11.051 -0.636,-1.332 c -0.614,-1.336 -1.5,-3.23 -3.485,-3.23 -0.386,0 -0.445,0.023 -0.664,0.113 0.246,0.11 0.895,0.496 0.895,1.473 0,0.918 -0.676,1.586 -1.617,1.586 -0.774,0 -1.59,-0.528 -1.59,-1.613 0,-1.418 1.312,-2.563 2.976,-2.563 2.145,0 3.766,1.727 4.512,3.316 l 5.977,12.715 z" /><path
       inkscape:connector-curvature="0"
       id="path198"
       style="fill:#000000;fill-opacity:1;fill-rule:evenodd;stroke:none"
       d="m 377.629,272.271 0,-2.172 4.922,0.168 0,1.305 c -1.727,0 -1.922,0 -1.922,1.086 l 0,10.129 -5.094,-0.227 0,-1.308 c 1.727,0 1.914,0 1.914,-1.082 l 0,-5.313 c 0,-2.277 -1.41,-3.754 -3.445,-3.754 -2.137,0 -2.223,0.688 -2.223,2.203 l 0,9.481 -5.097,-0.227 0,-1.308 c 1.73,0 1.918,0 1.918,-1.082 l 0,-6.485 c 0,-2.972 2.265,-3.586 5.011,-3.586 0.727,0 2.731,0 4.016,2.172 z" /><path
       inkscape:connector-curvature="0"
       id="path200"
       style="fill:#000000;fill-opacity:1;fill-rule:evenodd;stroke:none"
       d="m 21.68,281.217 0,3.136 -4.617,-0.226 0,-1.309 c 1.73,0 1.917,0 1.917,-1.082 l 0,-8.598 -1.917,0 0,-1.304 c 0.976,0.027 2.226,0.09 3.507,0.09 1.055,0 2.836,0 3.84,-0.09 l 0,1.304 -2.422,0 0,4.871 c 0,1.95 0.696,5.34 3.481,5.34 -0.031,-0.023 -0.531,-0.468 -0.531,-1.277 0,-1.137 0.886,-1.695 1.695,-1.695 0.805,0 1.695,0.582 1.695,1.695 0,1.473 -1.5,2.281 -2.949,2.281 -1.945,0 -3.055,-1.394 -3.699,-3.136 z" /><g
       id="g4735"
       transform="matrix(0.86364237,0,0,0.86364234,209.1248,206.97131)"><g
         word-spacing="normal"
         letter-spacing="normal"
         font-size-adjust="none"
         font-stretch="normal"
         font-weight="normal"
         font-variant="normal"
         font-style="normal"
         stroke-miterlimit="10.433"
         xml:space="preserve"
         transform="matrix(0.52736071,0,0,0.52736071,91.75597,-158.34313)"
         id="content"
         style="font-style:normal;font-variant:normal;font-weight:normal;font-stretch:normal;letter-spacing:normal;word-spacing:normal;text-anchor:start;fill:none;fill-opacity:1;fill-rule:evenodd;stroke:#000000;stroke-width:1.15788662;stroke-linecap:butt;stroke-linejoin:miter;stroke-miterlimit:10.43299961;stroke-dasharray:none;stroke-dashoffset:0;stroke-opacity:1"><path
           id="path4602"
           d="m 466.83,421.95 -0.15,1.28 0,13.45 c 0,1.66 0.11,2 2.43,2 l 4.44,0 c 7.92,0 7.92,-5.28 7.92,-7.72 0,-2.34 0,-7.73 -7.92,-7.73 l -6.87,0 0.15,-1.28 8.42,0 c 5.97,0 11.36,4.03 11.36,9.01 0,4.88 -4.93,9.27 -11.76,9.27 l -17.58,0 0,-1.55 1.19,0 c 3.84,0 3.93,-0.54 3.93,-2.34 l 0,-26.25 c 0,-1.8 -0.09,-2.34 -3.93,-2.34 l -1.19,0 0,-1.55 c 1.73,0.16 5.42,0.16 7.31,0.16 1.89,0 5.64,0 7.38,-0.16 l 0,1.55 -1.19,0 c -3.84,0 -3.94,0.54 -3.94,2.34 z"
           inkscape:connector-curvature="0"
           style="fill:#000000;stroke-width:0" /><path
           id="path4604"
           d="m 498.29,440.78 -7.17,-0.55 0,-1.55 c 3.48,0 3.89,-0.34 3.89,-2.79 l 0,-25.91 c 0,-2.23 -0.55,-2.23 -3.89,-2.23 l 0,-1.55 c 1.64,0.05 4.28,0.16 5.53,0.16 1.25,0 3.69,-0.11 5.53,-0.16 l 0,1.55 c -3.34,0 -3.89,0 -3.89,2.23 z"
           inkscape:connector-curvature="0"
           style="fill:#000000;stroke-width:0" /><path
           id="path4606"
           d="m 519.87,409.98 0.02,-0.19 0.03,-0.18 0.03,-0.19 0.05,-0.18 0.05,-0.19 0.05,-0.18 0.06,-0.18 0.07,-0.18 0.08,-0.18 0.08,-0.17 0.09,-0.18 0.09,-0.16 0.1,-0.16 0.11,-0.16 0.11,-0.16 0.12,-0.14 0.13,-0.14 0.13,-0.14 0.14,-0.13 0.14,-0.12 0.15,-0.12 0.16,-0.1 0.16,-0.1 0.17,-0.09 0.17,-0.08 0.19,-0.07 0.18,-0.06 0.2,-0.05 0.2,-0.04 0.2,-0.03 0.21,-0.02 0.22,-0.01 c 1.03,0 4.08,0.71 4.08,4.74 l 0,2.78 -1.25,0 0,-2.78 c 0,-2.89 -1.24,-3.19 -1.8,-3.19 -1.64,0 -1.84,2.23 -1.84,2.48 l 0,9.97 c 0,2.1 0,4.03 -1.79,5.88 -1.95,1.93 -4.43,2.73 -6.82,2.73 -4.1,0 -7.54,-2.33 -7.54,-5.62 0,-1.49 1,-2.35 2.3,-2.35 1.39,0 2.3,1 2.3,2.3 0,0.59 -0.25,2.23 -2.55,2.3 1.35,1.73 3.78,2.28 5.38,2.28 2.45,0 5.28,-1.94 5.28,-6.38 l 0,-1.84 0,-1.05 0,-4.98 c 0,-4.74 -3.58,-6.42 -5.83,-6.42 -2.44,0 -4.48,1.75 -4.48,4.23 0,2.73 2.09,6.88 10.31,7.17 l 0,0 0,1.05 c -2.53,-0.14 -6.02,-0.3 -9.16,-1.8 -3.73,-1.69 -4.98,-4.28 -4.98,-6.47 0,-4.03 4.83,-5.28 7.97,-5.28 3.29,0 5.57,1.99 6.53,4.33 z"
           inkscape:connector-curvature="0"
           style="fill:#000000;stroke-width:0" /><path
           id="path4608"
           d="m 533.72,423.34 0,-13.36 c 0,-2.23 -0.55,-2.23 -3.9,-2.23 l 0,-1.55 c 1.75,0.05 4.28,0.16 5.63,0.16 1.3,0 3.89,-0.11 5.58,-0.16 l 0,1.55 c -3.33,0 -3.88,0 -3.88,2.23 l 0,9.17 c 0,5.19 3.53,7.97 6.72,7.97 3.14,0 3.69,-2.69 3.69,-5.53 l 0,-11.61 c 0,-2.23 -0.55,-2.23 -3.89,-2.23 l 0,-1.55 c 1.75,0.05 4.3,0.16 5.64,0.16 1.29,0 3.87,-0.11 5.58,-0.16 l 0,1.55 c -2.6,0 -3.85,0 -3.89,1.5 l 0,9.51 c 0,4.28 0,5.83 -1.55,7.61 -0.69,0.86 -2.35,1.84 -5.22,1.84 -3.64,0 -5.98,-2.14 -7.38,-5.21 l 0,5.21 -7.03,-0.54 0,-1.55 c 3.49,0 3.9,-0.34 3.9,-2.78 z"
           inkscape:connector-curvature="0"
           style="fill:#000000;stroke-width:0" /><path
           id="path4610"
           d="m 563.13,426.12 7.13,0 0,1.55 -7.13,0 0,9.17 -1.25,0 c -0.04,-4.08 -1.54,-9.42 -6.42,-9.61 l 0,-1.11 4.24,0 0,-13.75 c 0,-6.12 4.62,-6.72 6.42,-6.72 3.53,0 4.93,3.53 4.93,6.72 l 0,2.84 -1.25,0 0,-2.73 c 0,-3.69 -1.5,-5.58 -3.34,-5.58 -3.33,0 -3.33,4.53 -3.33,5.38 z"
           inkscape:connector-curvature="0"
           style="fill:#000000;stroke-width:0" /></g></g></g></svg>