<?xml version="1.0" encoding="UTF-8" standalone="no"?>
<!-- Created with Inkscape (http://www.inkscape.org/) -->

<svg
   xmlns:dc="http://purl.org/dc/elements/1.1/"
   xmlns:cc="http://creativecommons.org/ns#"
   xmlns:rdf="http://www.w3.org/1999/02/22-rdf-syntax-ns#"
   xmlns:svg="http://www.w3.org/2000/svg"
   xmlns="http://www.w3.org/2000/svg"
   xmlns:sodipodi="http://sodipodi.sourceforge.net/DTD/sodipodi-0.dtd"
   xmlns:inkscape="http://www.inkscape.org/namespaces/inkscape"
   version="1.1"
   id="svg4572"
   xml:space="preserve"
   width="337.69876"
   height="318.30038"
   viewBox="0 0 337.69876 318.30038"
   sodipodi:docname="system.svg"
   inkscape:version="0.92.2 2405546, 2018-03-11"><metadata
     id="metadata4578"><rdf:RDF><cc:Work
         rdf:about=""><dc:format>image/svg+xml</dc:format><dc:type
           rdf:resource="http://purl.org/dc/dcmitype/StillImage" /><dc:title /></cc:Work></rdf:RDF></metadata><defs
     id="defs4576" /><sodipodi:namedview
     pagecolor="#ffffff"
     bordercolor="#666666"
     borderopacity="1"
     objecttolerance="10"
     gridtolerance="10"
     guidetolerance="10"
     inkscape:pageopacity="0"
     inkscape:pageshadow="2"
     inkscape:window-width="1572"
     inkscape:window-height="872"
     id="namedview4574"
     showgrid="false"
     inkscape:zoom="1.5150683"
     inkscape:cx="254.46043"
     inkscape:cy="191.43786"
     inkscape:window-x="1036"
     inkscape:window-y="12"
     inkscape:window-maximized="0"
     inkscape:current-layer="g4580" /><g
     id="g4580"
     inkscape:groupmode="layer"
     inkscape:label="system"
     transform="matrix(1.3333333,0,0,1.3333333,0,3.2908427e-6)"><path
       inkscape:connector-curvature="0"
       id="path4584"
       style="fill:#000000;fill-opacity:1;fill-rule:evenodd;stroke:none"
       d="m 215.652,56.754 -0.011,0.043 -0.008,0.051 -0.012,0.043 -0.008,0.05 -0.023,0.102 -0.028,0.102 -0.019,0.101 -0.023,0.102 -0.024,0.097 -0.027,0.102 -0.004,0.051 -0.016,0.047 -0.011,0.043 -0.008,0.042 -0.012,0.043 -0.004,0.047 -0.008,0.035 -0.008,0.04 -0.003,0.039 -0.008,0.031 -0.004,0.031 -0.008,0.024 -0.008,0.027 v 0.055 c 0,0.562 0.442,0.851 0.903,0.851 0.382,0 0.945,-0.246 1.168,-0.875 0.035,-0.07 0.406,-1.539 0.597,-2.328 l 0.692,-2.82 c 0.183,-0.696 0.375,-1.383 0.531,-2.114 0.125,-0.531 0.383,-1.437 0.414,-1.562 0.473,-0.977 2.137,-3.832 5.105,-3.832 1.418,0 1.711,1.16 1.711,2.191 0,0.789 -0.226,1.664 -0.472,2.61 l -0.879,3.652 -0.629,2.383 c -0.133,0.629 -0.418,1.687 -0.418,1.844 0,0.562 0.441,0.851 0.914,0.851 0.98,0 1.168,-0.789 1.414,-1.797 0.441,-1.75 1.605,-6.34 1.891,-7.562 0.089,-0.41 1.753,-4.172 5.179,-4.172 1.352,0 1.692,1.062 1.692,2.191 0,1.797 -1.317,5.371 -1.95,7.035 -0.281,0.758 -0.402,1.102 -0.402,1.735 0,1.469 1.09,2.57 2.57,2.57 2.957,0 4.118,-4.582 4.118,-4.832 0,-0.316 -0.286,-0.316 -0.371,-0.316 -0.317,0 -0.317,0.093 -0.473,0.566 -0.473,1.664 -1.484,3.891 -3.203,3.891 -0.543,0 -0.762,-0.317 -0.762,-1.035 0,-0.789 0.289,-1.543 0.566,-2.231 0.598,-1.625 1.915,-5.113 1.915,-6.91 0,-2.035 -1.258,-3.352 -3.61,-3.352 -2.359,0 -3.953,1.375 -5.113,3.039 -0.035,-0.41 -0.125,-1.476 -1.012,-2.226 -0.785,-0.656 -1.785,-0.813 -2.574,-0.813 -2.824,0 -4.359,2.004 -4.891,2.723 -0.156,-1.789 -1.48,-2.723 -2.898,-2.723 -1.438,0 -2.035,1.215 -2.328,1.778 -0.559,1.101 -0.969,2.957 -0.969,3.058 0,0.313 0.316,0.313 0.383,0.313 0.316,0 0.34,-0.043 0.531,-0.731 0.527,-2.226 1.16,-3.73 2.293,-3.73 0.504,0 0.977,0.246 0.977,1.437 0,0.661 -0.098,1.012 -0.504,2.641 z" /><path
       inkscape:connector-curvature="0"
       id="path4586"
       style="fill:#000000;fill-opacity:1;fill-rule:evenodd;stroke:none"
       d="m 28.492,106.516 0.008,-0.039 0.008,-0.032 0.004,-0.031 0.008,-0.039 0.011,-0.063 0.008,-0.031 0.012,-0.039 0.008,-0.031 0.003,-0.035 0.008,-0.035 v -0.036 l 0.004,-0.039 v -0.039 l 0.008,-0.015 v -0.059 c 0,-0.543 -0.371,-0.855 -0.906,-0.855 -0.317,0 -1.16,0.226 -1.293,1.359 -0.563,-1.164 -1.664,-1.98 -2.914,-1.98 l 0.031,0.687 c 2.07,0 2.512,2.543 2.512,2.699 0,0.157 -0.059,0.348 -0.102,0.473 l -1.508,6 c -0.183,0.812 -0.902,1.594 -1.593,2.195 -0.657,0.559 -1.633,1.133 -2.547,1.133 -1.571,0 -2.043,-1.637 -2.043,-2.887 0,-1.519 0.914,-5.218 1.765,-6.812 0.844,-1.551 2.196,-2.801 3.516,-2.801 l -0.031,-0.687 c -3.586,0 -7.473,4.39 -7.473,8.914 0,3.109 1.91,4.961 4.176,4.961 1.848,0 3.328,-1.477 3.644,-1.821 l 0.028,0.031 c -0.656,2.793 -1.035,4.083 -1.035,4.145 -0.125,0.285 -1.192,3.398 -4.52,3.398 -0.598,0 -1.633,-0.043 -2.519,-0.316 0.945,-0.289 1.289,-1.101 1.289,-1.637 0,-0.5 -0.344,-1.101 -1.192,-1.101 -0.691,0 -1.695,0.57 -1.695,1.82 0,1.293 1.16,1.922 4.176,1.922 3.918,0 6.187,-2.453 6.66,-4.336 z" /><path
       inkscape:connector-curvature="0"
       id="path4588"
       style="fill:#000000;fill-opacity:1;fill-rule:evenodd;stroke:none"
       d="m 137.902,91.102 v -0.196 l -0.007,-0.215 -0.012,-0.226 -0.012,-0.231 -0.019,-0.246 -0.024,-0.246 -0.027,-0.258 -0.039,-0.261 -0.043,-0.262 -0.043,-0.273 -0.059,-0.266 -0.062,-0.27 -0.075,-0.265 -0.074,-0.262 -0.09,-0.262 -0.101,-0.258 -0.106,-0.25 -0.113,-0.242 -0.129,-0.23 -0.137,-0.227 -0.144,-0.215 -0.16,-0.203 -0.176,-0.187 -0.184,-0.172 -0.293,-0.234 -0.109,-0.063 -0.105,-0.062 -0.114,-0.063 -0.113,-0.051 -0.121,-0.051 -0.121,-0.043 -0.125,-0.039 -0.266,-0.062 -0.137,-0.02 -0.14,-0.011 -0.145,-0.012 h -0.144 l -0.031,0.687 c 1.539,0 1.722,2.008 1.722,3.801 0,1.535 -0.246,3.145 -1.004,6.25 h -6.562 c 0.535,-2.015 1.168,-4.523 2.414,-6.754 0.859,-1.535 2.012,-3.297 3.43,-3.297 l 0.031,-0.687 c -4.363,0 -9.203,8.848 -9.203,16.039 0,2.957 0.91,6.441 3.777,6.441 v -0.691 c -1.047,0 -1.707,-0.914 -1.707,-3.828 0,-1.32 0.188,-3.145 1.008,-6.215 h 6.535 c -0.34,1.438 -1.004,4.106 -2.207,6.375 -1.09,2.137 -2.281,3.668 -3.629,3.668 v 0.691 c 4.418,0 9.195,-9.011 9.195,-16.046 z" /><g
       id="g4590"><path
         inkscape:connector-curvature="0"
         id="path4592"
         style="fill:none;stroke:#000000;stroke-width:2.83464599;stroke-linecap:butt;stroke-linejoin:miter;stroke-miterlimit:4;stroke-dasharray:none;stroke-opacity:1"
         d="m 36.324,66.277 v 97.485" /></g><g
       transform="rotate(-90)"
       id="g4594"><path
         inkscape:connector-curvature="0"
         id="path4596"
         style="fill:#000000;fill-opacity:1;fill-rule:evenodd;stroke:#000000;stroke-width:1.06299198;stroke-linecap:butt;stroke-linejoin:round;stroke-miterlimit:4;stroke-dasharray:none;stroke-opacity:1"
         d="m -148.934,43.184 -18.582,-6.832 18.582,-6.836 c -2.968,4.035 -2.953,9.554 0,13.668 z" /></g><g
       id="g4598"><path
         inkscape:connector-curvature="0"
         id="path4600"
         style="fill:none;stroke:#000000;stroke-width:5.66929102;stroke-linecap:round;stroke-linejoin:miter;stroke-miterlimit:4;stroke-dasharray:none;stroke-opacity:1"
         d="M 106.484,195.637 197.871,37.352" /></g><g
       id="g4602"><path
         inkscape:connector-curvature="0"
         id="path4604"
         style="fill:#000000;fill-opacity:1;fill-rule:nonzero;stroke:#000000;stroke-width:4.00539207;stroke-linecap:round;stroke-linejoin:miter;stroke-miterlimit:4;stroke-dasharray:none;stroke-opacity:1"
         d="m 209.016,37.352 c 0,6.152 -4.989,11.144 -11.145,11.144 -6.156,0 -11.144,-4.992 -11.144,-11.144 0,-6.157 4.988,-11.145 11.144,-11.145 6.156,0 11.145,4.988 11.145,11.145 z" /></g><g
       id="g4606"><path
         inkscape:connector-curvature="0"
         id="path4608"
         style="fill:none;stroke:#000000;stroke-width:2.26771688;stroke-linecap:butt;stroke-linejoin:miter;stroke-miterlimit:4;stroke-dasharray:6.80315, 6.80315;stroke-dashoffset:0;stroke-opacity:1"
         d="M 106.484,24.5 V 198.602" /></g><g
       transform="matrix(1,0.229228,-0.229228,1,0,0)"
       id="g4610"><path
         inkscape:connector-curvature="0"
         id="path4612"
         style="fill:none;stroke:#000000;stroke-width:2.21038699;stroke-linecap:round;stroke-linejoin:miter;stroke-miterlimit:4;stroke-dasharray:none;stroke-opacity:1"
         d="m 125.473,81.832 c 13.37,-6.003 28.761,-5.523 41.733,1.305" /></g><g
       id="g4657"><g
         id="g4614"
         transform="scale(1,-1)"><path
           d="m 82.93,-206.984 c 4.476,-12.266 17.89,-18.903 30.496,-15.082 12.601,3.82 19.961,16.75 16.722,29.39"
           style="fill:none;stroke:#000000;stroke-width:2.83464599;stroke-linecap:round;stroke-linejoin:miter;stroke-miterlimit:4;stroke-dasharray:none;stroke-opacity:1"
           id="path4616"
           inkscape:connector-curvature="0" /></g><g
         id="g4622"
         transform="matrix(0.250664,1,-1,0.250664,0,0)"><path
           d="m 217.113,-24.324 -13.219,-4.86 13.218,-4.862 c -2.11,2.869 -2.098,6.798 0.001,9.722 z"
           style="fill:#000000;fill-opacity:1;fill-rule:evenodd;stroke:#000000;stroke-width:0.75613499;stroke-linecap:butt;stroke-linejoin:round;stroke-miterlimit:4;stroke-dasharray:none;stroke-opacity:1"
           id="path4624"
           inkscape:connector-curvature="0" /></g></g><path
       inkscape:connector-curvature="0"
       id="path4626"
       style="fill:#000000;fill-opacity:1;fill-rule:evenodd;stroke:none"
       d="m 138.512,217.191 h 5.91 c 0.457,0 1.715,0 1.715,-1.187 0,-0.832 -0.735,-0.832 -1.399,-0.832 h -9.84 c -0.707,0 -2.074,0 -3.621,1.64 -1.168,1.243 -2.148,2.911 -2.148,3.129 0,0.036 0,0.332 0.422,0.332 0.281,0 0.351,-0.125 0.558,-0.41 1.735,-2.672 3.731,-2.672 4.465,-2.672 h 2.918 l -3.449,11.157 c -0.133,0.414 -0.336,1.144 -0.336,1.285 0,0.383 0.238,0.937 1.016,0.937 1.156,0 1.332,-0.972 1.437,-1.496 z" /><path
       inkscape:connector-curvature="0"
       id="path4628"
       style="fill:#000000;fill-opacity:1;fill-rule:evenodd;stroke:none"
       d="m 183.852,89.188 v -0.032 l -0.008,-0.015 V 89.117 L 183.84,89.102 V 89.09 l -0.016,-0.024 v -0.019 l -0.012,-0.016 -0.007,-0.019 -0.004,-0.012 -0.012,-0.02 -0.016,-0.011 -0.011,-0.012 -0.012,-0.019 -0.008,-0.008 -0.012,-0.004 -0.015,-0.016 -0.012,-0.004 -0.004,-0.008 -0.015,-0.007 -0.012,-0.004 -0.012,-0.008 -0.008,-0.008 h -0.011 l -0.012,-0.004 -0.016,-0.008 h -0.019 l -0.012,-0.004 -0.012,-0.007 h -0.031 l -0.016,-0.008 h -0.035 l -0.019,-0.004 h -0.039 c -0.731,0 -3.059,0.262 -3.891,0.32 -0.25,0.032 -0.598,0.063 -0.598,0.672 0,0.352 0.309,0.352 0.789,0.352 1.528,0 1.567,0.285 1.567,0.535 l -0.094,0.64 -4.019,15.942 c -0.09,0.348 -0.161,0.578 -0.161,1.09 0,1.808 1.407,2.929 2.899,2.929 1.055,0 1.848,-0.64 2.398,-1.781 0.571,-1.219 0.95,-3.07 0.95,-3.129 0,-0.32 -0.278,-0.32 -0.379,-0.32 -0.321,0 -0.352,0.129 -0.45,0.578 -0.543,2.074 -1.144,3.949 -2.421,3.949 -0.961,0 -0.961,-1.019 -0.961,-1.465 0,-0.761 0.043,-0.921 0.191,-1.531 z" /></g></svg>